<svg xmlns="http://www.w3.org/2000/svg" xmlns:xlink="http://www.w3.org/1999/xlink" width="1156" height="1037" viewBox="0 0 1156 1037">
  <defs>
    <clipPath id="clip-path">
      <rect id="Rectangle_5224" data-name="Rectangle 5224" width="1156" height="1037" rx="20" transform="translate(735 23)" fill="#fff"/>
    </clipPath>
  </defs>
  <g id="Mask_Group_7" data-name="Mask Group 7" transform="translate(-735 -23)" clip-path="url(#clip-path)">
    <g id="Login-cuate_1_" data-name="Login-cuate (1)" transform="translate(773.538 1.733)">
      <g id="freepik--background-complete--inject-2" transform="translate(90.884 105.55)">
        <path id="Path_9314" data-name="Path 9314" d="M188.832,789.426l-28.869.567-14.7.252c-4.892,0-9.805,0-14.7.1h-.924v-.924l-.126-24.607v-1.071h1.05l29.121.126c9.7,0,19.4.231,29.1.336h.588v.567c0,4.2-.189,8.4-.273,12.409Zm0,0L188.538,777c0-4.094-.231-8.146-.273-12.178l.567.567c-9.7,0-19.4.336-29.1.336l-29.121.147,1.05-1.05v24.607l-.945-.945h14.4l14.466.252Z" transform="translate(-97.164 -212.542)" fill="#ebebeb"/>
        <path id="Path_9315" data-name="Path 9315" d="M150.071,826.46l-28.869.588-14.7.231c-4.892.1-9.805,0-14.7.126h-.924V800.8h1.05l29.121.147c9.7,0,19.4.231,29.1.336h.588v.567c0,4.2-.189,8.4-.273,12.43Zm0,0-.294-12.43c0-4.094-.231-8.146-.273-12.178l.567.588c-9.7.1-19.4.336-29.1.336l-29.121.126,1.05-1.05-.1,24.607-.945-.924c4.808,0,9.6,0,14.4.1l14.466.231Z" transform="translate(-90.884 -218.565)" fill="#ebebeb"/>
        <path id="Path_9316" data-name="Path 9316" d="M638.269,423.188l-28.869.588-14.7.231c-4.892.1-9.805,0-14.7.126h-.882v-.945L579,398.581v-1.05h1.05l29.121.126c9.7,0,19.4.252,29.1.357h.588v.567c0,4.2-.189,8.4-.273,12.43Zm0,0-.294-12.43c0-4.2-.231-8.146-.273-12.178l.567.567c-9.7.126-19.4.336-29.1.357l-29.121.126,1.05-1.05-.1,24.607-.945-.945c4.808,0,9.6,0,14.4.126l14.466.231Z" transform="translate(-170.227 -153.012)" fill="#ebebeb"/>
        <path id="Path_9317" data-name="Path 9317" d="M598.852,460.239l-28.869.588-14.7.231c-4.892,0-9.805,0-14.7.105h-.924v-.945l-.1-24.607v-1.05h1.05l29.121.126c9.7,0,19.421.231,29.121.336h.567v.567c0,4.2-.189,8.4-.273,12.43Zm0,0-.294-12.43c-.1-4.094-.252-8.146-.294-12.178l.588.567c-9.7,0-19.421.336-29.121.336l-29.121.147,1.05-1.05-.105,24.607-.945-.945c4.808,0,9.6,0,14.4.126l14.487.231Z" transform="translate(-163.817 -159.032)" fill="#ebebeb"/>
        <path id="Path_9318" data-name="Path 9318" d="M1150.016,826.46l-28.869.588-14.7.231c-4.892.1-9.805,0-14.7.126h-.945v-.945l-.1-24.607V800.8h1.071l29.1.147c9.721,0,19.421.231,29.121.336h.567v.567c0,4.2-.168,8.4-.273,12.43Zm0,0-.294-12.43c0-4.094-.231-8.146-.273-12.178l.567.588c-9.7.1-19.4.336-29.121.336l-29.1.126,1.05-1.05-.126,24.607-.924-.924c4.787,0,9.574,0,14.4.1l14.466.231Z" transform="translate(-253.406 -218.565)" fill="#ebebeb"/>
        <path id="Path_9319" data-name="Path 9319" d="M1111.231,131.333l-28.869.588-14.7.231h-15.642v-.945l-.1-24.607v-1.05h1.071l29.1.126c9.7,0,19.421.252,29.121.357h.567v.567c0,4.2-.168,8.4-.273,12.43Zm0,0-.294-12.43c-.1-4.2-.231-8.146-.273-12.178l.567.567c-9.7,0-19.421.336-29.121.357l-29.1.126,1.05-1.05-.126,24.607-.924-.945c4.787,0,9.574,0,14.4.126l14.466.231Z" transform="translate(-247.102 -105.55)" fill="#ebebeb"/>
        <path id="Path_9320" data-name="Path 9320" d="M1150.016,168.393l-28.869.567-14.7.252h-15.642v-.924l-.1-24.607v-1.05h1.071l29.1.126c9.721,0,19.421.231,29.121.336h.567v.567c0,4.2-.168,8.4-.273,12.43Zm0,0-.294-12.43c0-4.2-.231-8.146-.273-12.178l.567.567c-9.7,0-19.4.336-29.121.336l-29.1.147,1.05-1.05-.126,24.607-.924-.945c4.787,0,9.574,0,14.4.126l14.466.231Z" transform="translate(-253.406 -111.578)" fill="#ebebeb"/>
        <path id="Path_9321" data-name="Path 9321" d="M150.071,131.333l-28.869.588-14.7.231H90.884v-26.6h1.05l29.121.126c9.7,0,19.4.252,29.1.357h.588v.567c0,4.2-.189,8.4-.273,12.43Zm0,0-.294-12.43c0-4.2-.231-8.146-.273-12.178l.567.567c-9.7,0-19.4.336-29.1.357l-29.121.126,1.05-1.05-.1,24.607-.945-.945c4.808,0,9.6,0,14.4.126l14.466.231Z" transform="translate(-90.884 -105.55)" fill="#ebebeb"/>
        <path id="Path_9322" data-name="Path 9322" d="M559.432,423.188l-28.869.588-14.7.231c-4.892.1-9.805,0-14.7.126h-.945v-26.6h1.05l29.1.126c9.721,0,19.421.252,29.121.357h.525v.567c0,4.2-.168,8.4-.273,12.43Zm0,0-.294-12.43c-.105-4.2-.231-8.146-.273-12.178l.567.567c-9.7.126-19.4.336-29.121.357l-29.1.126,1.05-1.05-.126,24.607-.924-.945c4.787,0,9.574,0,14.4.126l14.466.231Z" transform="translate(-157.423 -153.012)" fill="#ebebeb"/>
        <rect id="Rectangle_5225" data-name="Rectangle 5225" width="100.235" height="100.235" transform="translate(165.112 254.429) rotate(90)" fill="#dbdbdb"/>
        <rect id="Rectangle_5226" data-name="Rectangle 5226" width="69.14" height="69.14" transform="translate(149.575 269.966) rotate(90)" fill="#fff"/>
        <path id="Path_9323" data-name="Path 9323" d="M256.071,427.917h-69.14v69.14Z" transform="translate(-106.496 -157.952)" fill="#ebebeb"/>
        <rect id="Rectangle_5227" data-name="Rectangle 5227" width="9.805" height="100.235" transform="translate(64.877 354.642) rotate(180)" fill="#c7c7c7"/>
        <rect id="Rectangle_5228" data-name="Rectangle 5228" width="100.235" height="100.235" transform="translate(289.177 254.429) rotate(90)" fill="#dbdbdb"/>
        <rect id="Rectangle_5229" data-name="Rectangle 5229" width="69.14" height="69.14" transform="translate(273.64 269.966) rotate(90)" fill="#fff"/>
        <path id="Path_9324" data-name="Path 9324" d="M383.915,427.917H335.078v48.837Z" transform="translate(-130.578 -157.952)" fill="#ebebeb"/>
        <rect id="Rectangle_5230" data-name="Rectangle 5230" width="9.805" height="100.235" transform="translate(188.963 354.642) rotate(180)" fill="#c7c7c7"/>
        <rect id="Rectangle_5231" data-name="Rectangle 5231" width="130.994" height="224.299" transform="translate(289.198 378.641) rotate(90)" fill="#dbdbdb"/>
        <rect id="Rectangle_5232" data-name="Rectangle 5232" width="98.597" height="191.546" transform="translate(272.821 394.828) rotate(90)" fill="#fff"/>
        <path id="Path_9325" data-name="Path 9325" d="M313.486,577.042H187.91v64.625Z" transform="translate(-106.655 -182.192)" fill="#ebebeb"/>
        <rect id="Rectangle_5233" data-name="Rectangle 5233" width="9.805" height="130.994" transform="translate(64.877 509.634) rotate(180)" fill="#c7c7c7"/>
        <rect id="Rectangle_5234" data-name="Rectangle 5234" width="224.299" height="224.299" transform="translate(289.177 6.761) rotate(90)" fill="#dbdbdb"/>
        <rect id="Rectangle_5235" data-name="Rectangle 5235" width="191.567" height="191.546" transform="translate(81.254 23.117)" fill="#fff"/>
        <path id="Path_9326" data-name="Path 9326" d="M188.035,271.076c29.016-28.974,111.53-111.068,138.027-137.922H188.035Z" transform="translate(-106.676 -110.037)" fill="#ebebeb"/>
        <rect id="Rectangle_5236" data-name="Rectangle 5236" width="9.805" height="224.299" transform="translate(64.877 231.06) rotate(180)" fill="#c7c7c7"/>
      </g>
      <g id="freepik--Shadow--inject-2" transform="translate(114.861 881.812)">
        <ellipse id="Ellipse_40" data-name="Ellipse 40" cx="424.811" cy="46.086" rx="424.811" ry="46.086" fill="#ebebeb"/>
      </g>
      <g id="freepik--Device--inject-2" transform="translate(557.601 112.29)">
        <path id="Path_9327" data-name="Path 9327" d="M1015.224,113.6H681.913a34.034,34.034,0,0,0-33.719,34.349V834.136a34.055,34.055,0,0,0,33.719,34.349h333.31a34.076,34.076,0,0,0,33.761-34.349V147.947a34.055,34.055,0,0,0-33.761-34.349Zm12.6,699.332c.084,18.078-13.332,32.775-30.129,32.775H699.55c-16.8,0-30.234-14.7-30.234-32.67V173.961c0-36.785,13.521-38.591,30.234-38.591h59.733c3.464,0,6.3,3.947,6.3,8.839v2.1c0,11.464,6.3,11.506,13.983,11.506H917.719c7.768,0,13.962,0,13.962-11.506v-2.1c0-4.892,2.813-8.839,6.3-8.839h59.712c16.692,0,30.213,4.892,30.213,38.591Z" transform="translate(-648.192 -113.598)" fill="#263238"/>
        <path id="Path_9328" data-name="Path 9328" d="M902.3,148.4H864.508a2.31,2.31,0,0,1-2.33-2.31h0a2.31,2.31,0,0,1,2.331-2.331H902.3a2.309,2.309,0,0,1,2.33,2.331h0a2.31,2.31,0,0,1-2.33,2.31Z" transform="translate(-682.976 -118.501)" fill="#fff"/>
        <path id="Path_9329" data-name="Path 9329" d="M1032,178.188V817.157c0,18.077-13.416,32.775-30.213,32.775H703.646c-16.8,0-30.255-14.7-30.255-32.67V178.188c0-36.785,13.521-38.591,30.255-38.591h59.712c3.464,0,6.3,3.947,6.3,8.839v2.1c0,11.464,6.3,11.506,13.983,11.506H921.772c7.769,0,13.983,0,13.983-11.506v-2.1c0-4.892,2.792-8.839,6.3-8.839h59.733C1018.585,139.6,1032,144.468,1032,178.188Z" transform="translate(-652.288 -117.824)" fill="#fff"/>
        <g id="Group_12540" data-name="Group 12540" transform="translate(19.717 62.176)" opacity="0.2">
          <path id="Path_9330" data-name="Path 9330" d="M1026.456,914.162a78.548,78.548,0,0,1-4.85,18.9,28.848,28.848,0,0,1-19.883,8.188H703.266c-16.8,0-30.276-14.7-30.276-32.691V736.389a116.317,116.317,0,0,1,42.433-27.631c35.8-13.374,74.557-7.936,95.846,10.792,31.494,27.715,79.113,102.523,106.155,104.014,1.848.1,3.989.231,6.3.441,19.589,1.575,55.849,6.971,79.785,26.959C1019.758,864.234,1030.319,884.264,1026.456,914.162Z" transform="translate(-671.94 -271.315)" fill="#595cff" opacity="0.4"/>
          <path id="Path_9331" data-name="Path 9331" d="M1001.519,940.445H703.062c-17.28,0-31.326-15.138-31.326-33.74V745.33l.231-.294A222.136,222.136,0,0,1,690.38,724.46a116.273,116.273,0,0,1,24.313-18.5c45.246-25.8,98.219-16.188,121.356,7.538,10.666,10.939,22.781,27.946,35.588,45.96,18.2,25.573,37.037,52.028,52.49,61.791a23.643,23.643,0,0,0,9.175,3.716c19.8,2.583,48.123,8.734,70.651,23.243,13.563,8.713,23.221,19.442,28.68,31.893v26.6a34.9,34.9,0,0,1-10.666,25.384A30.046,30.046,0,0,1,1001.519,940.445Zm-327.684-194.4V906.7c0,17.448,13.1,31.641,29.226,31.641h298.457a27.883,27.883,0,0,0,19.148-7.79,32.816,32.816,0,0,0,10.015-23.851V880.712c-5.312-11.989-14.7-22.34-27.8-30.78-22.193-14.3-50.2-20.366-69.791-22.928a25.867,25.867,0,0,1-10.036-4.031c-15.852-9.973-34.79-36.6-53.12-62.337-12.766-17.951-24.838-34.9-35.4-45.729-22.571-23.1-74.431-32.46-118.8-7.16a114.015,114.015,0,0,0-23.893,18.161A221.432,221.432,0,0,0,673.836,746.044Z" transform="translate(-671.736 -269.569)" fill="#263238"/>
          <path id="Path_9332" data-name="Path 9332" d="M795.254,209.671c9.112,14.7,4.2,32.271-5.375,37.667s-26.161,16.146-28.617,22.781-18.014,23.368-37.6,13.731-17.406-43.4-8.755-64.059C726.325,192.539,770.248,169.107,795.254,209.671Z" transform="translate(-677.719 -187.842)" fill="#595cff" opacity="0.4"/>
          <path id="Path_9333" data-name="Path 9333" d="M732.826,290.476a27.526,27.526,0,0,1-14.025-3.947c-19.967-11.716-14.361-46.191-4.2-65.675,8.4-16.461,28.3-28.89,46.191-28.932h0c10.918,0,26.119,4.325,36.848,24.943h0a32.166,32.166,0,0,1,2.1,25.048,22.361,22.361,0,0,1-10.876,13.4c-12.6,5.921-26.98,14.172-29.394,19.526-1.89,4.073-9.028,11.443-18.371,14.361A27.628,27.628,0,0,1,732.826,290.476Zm27.9-96.455h0c-17.091,0-36.113,11.989-44.259,27.778-10.1,19.61-14.508,52.364,3.464,62.988a24.5,24.5,0,0,0,20.534,2.478c8.734-2.729,15.369-9.511,17.091-13.227,3.338-7.181,22.424-16.8,30.486-20.534a20.282,20.282,0,0,0,9.763-12.178,30.129,30.129,0,0,0-1.995-23.41h0c-10.351-19.757-24.754-23.893-35.084-23.893Z" transform="translate(-677.208 -188.505)" fill="#263238"/>
          <path id="Path_9334" data-name="Path 9334" d="M966.144,334.963c-39.367,7.328-56.9,38.7-44.3,55.534s56.479,16.524,64.562,40.8,38.318,60.384,69.812,36.008S1050.4,319.3,966.144,334.963Z" transform="translate(-711.736 -211.535)" fill="#dbdbdb"/>
          <path id="Path_9335" data-name="Path 9335" d="M1020.673,486.046a32.376,32.376,0,0,1-13.185-2.855c-17.49-7.643-30.381-29.772-34.1-47.661-2.855-13.752-17.889-21.311-32.418-28.6-11.359-5.711-22.088-11.086-26.791-19.211-3.989-6.887-3.716-15.621.714-23.956,6.467-12.115,23.1-25.72,50.663-27.547v0c57.865-3.821,79.364,50.18,84.572,66.83,10.5,33.594,6.089,67.418-10.036,77.118A37.792,37.792,0,0,1,1020.673,486.046ZM965.706,338.319c-26.644,1.764-42.748,14.823-48.941,26.434-4.2,7.79-4.43,15.579-.756,21.92,4.388,7.58,14.844,12.828,25.909,18.371,14.991,7.538,30.486,15.306,33.594,30.045,3.611,17.385,16.062,38.821,32.88,46.191,9.91,4.325,20.24,3.359,30.7-2.918,15.327-9.217,19.337-41.992,9.091-74.682-5.081-16.272-26.056-69.1-82.409-65.36Z" transform="translate(-710.689 -211.93)" fill="#263238"/>
        </g>
        <g id="freepik--u5Zjqx--inject-2" transform="translate(87.806 33.53)">
          <path id="Path_9336" data-name="Path 9336" d="M765.955,156.241l-.567.567-.336.336a7.727,7.727,0,0,0-5.543-2.31,7.81,7.81,0,0,0-5.585,2.31l-.315-.315-.567-.588h0l.714-.63a9.025,9.025,0,0,1,1.7-1.092,8.4,8.4,0,0,1,2.226-.735,10.812,10.812,0,0,1,1.113-.147h1.743a7.727,7.727,0,0,1,2.1.483,8.394,8.394,0,0,1,1.386.651,7.437,7.437,0,0,1,1.323.924Z" transform="translate(-753.042 -153.637)" fill="#c7c7c7"/>
          <path id="Path_9337" data-name="Path 9337" d="M756.1,159.431l-.9-.9a6.572,6.572,0,0,1,9.3,0l-.924.924a5.165,5.165,0,0,0-3.737-1.554,5.249,5.249,0,0,0-3.737,1.533Z" transform="translate(-753.393 -154.119)" fill="#c7c7c7"/>
          <path id="Path_9338" data-name="Path 9338" d="M763.027,160.833l-.924.924a2.687,2.687,0,0,0-3.821,0c-.294-.315-.609-.609-.9-.9a3.989,3.989,0,0,1,5.648-.021Z" transform="translate(-753.747 -154.618)" fill="#c7c7c7"/>
          <path id="Path_9339" data-name="Path 9339" d="M761.4,162.98a.819.819,0,0,1-.819.819.84.84,0,0,1-.819-.819.819.819,0,0,1,.819-.819.8.8,0,0,1,.819.819Z" transform="translate(-754.135 -155.023)" fill="#c7c7c7"/>
        </g>
        <path id="Path_9340" data-name="Path 9340" d="M701.27,158.366a2.351,2.351,0,1,1,.689,1.684,2.373,2.373,0,0,1-.689-1.684Z" transform="translate(-656.82 -120.49)" fill="#c7c7c7"/>
        <path id="Path_9341" data-name="Path 9341" d="M710.2,158.358a2.373,2.373,0,1,1,.7,1.685A2.394,2.394,0,0,1,710.2,158.358Z" transform="translate(-658.271 -120.481)" fill="#c7c7c7"/>
        <path id="Path_9342" data-name="Path 9342" d="M719.146,158.366a2.372,2.372,0,1,1,.717,1.7,2.373,2.373,0,0,1-.717-1.7Z" transform="translate(-659.726 -120.49)" fill="#c7c7c7"/>
        <path id="Path_9343" data-name="Path 9343" d="M728.1,158.366a2.373,2.373,0,1,1,2.373,2.373A2.372,2.372,0,0,1,728.1,158.366Z" transform="translate(-661.181 -120.49)" fill="#c7c7c7"/>
        <path id="Path_9344" data-name="Path 9344" d="M737.1,158.358a2.394,2.394,0,1,1,2.373,2.373A2.394,2.394,0,0,1,737.1,158.358Z" transform="translate(-662.644 -120.481)" fill="#c7c7c7"/>
        <path id="Path_9345" data-name="Path 9345" d="M1065.549,163.114h-18.9v-8.4h18.9Zm-18.371-.525h17.847v-7.454h-17.847Z" transform="translate(-712.963 -120.282)" fill="#c7c7c7"/>
        <rect id="Rectangle_5237" data-name="Rectangle 5237" width="12.472" height="5.921" transform="translate(335.075 35.63)" fill="#c7c7c7"/>
        <rect id="Rectangle_5238" data-name="Rectangle 5238" width="1.722" height="4.787" transform="translate(352.817 36.176)" fill="#c7c7c7"/>
        <path id="Path_9346" data-name="Path 9346" d="M857.057,897.872a5.312,5.312,0,1,1-1.548-3.77,5.312,5.312,0,0,1,1.548,3.77Z" transform="translate(-680.417 -240.217)" fill="#dbdbdb"/>
        <path id="Path_9347" data-name="Path 9347" d="M894.657,897.346a8.041,8.041,0,1,1-8.042-8.041,8.041,8.041,0,0,1,8.042,8.041Z" transform="translate(-685.641 -239.691)" fill="#595cff"/>
        <path id="Path_9348" data-name="Path 9348" d="M927.833,897.872a5.312,5.312,0,1,1-1.548-3.77,5.312,5.312,0,0,1,1.548,3.77Z" transform="translate(-691.922 -240.217)" fill="#dbdbdb"/>
        <path id="Path_9349" data-name="Path 9349" d="M837.683,466.854v-15.7a1.449,1.449,0,0,1,1.449-1.47,1.47,1.47,0,0,1,1.491,1.47v14.214h7.307a1.47,1.47,0,1,1,0,2.939h-8.713a1.449,1.449,0,0,1-1.533-1.449Z" transform="translate(-678.994 -168.229)" fill="#595cff"/>
        <path id="Path_9350" data-name="Path 9350" d="M868.856,451.883a9.805,9.805,0,0,1,0,13.479,8.734,8.734,0,0,1-6.3,2.834,9.028,9.028,0,0,1-6.53-2.834,9.973,9.973,0,0,1,0-13.479,8.9,8.9,0,0,1,6.53-2.855,8.588,8.588,0,0,1,6.3,2.855Zm-.336,6.74a6.928,6.928,0,0,0-1.827-4.661,5.732,5.732,0,0,0-8.5,0,6.739,6.739,0,0,0-1.827,4.661,6.551,6.551,0,0,0,1.827,4.619,5.648,5.648,0,0,0,8.5,0,6.739,6.739,0,0,0,1.827-4.619Z" transform="translate(-681.55 -168.123)" fill="#595cff"/>
        <path id="Path_9351" data-name="Path 9351" d="M880.354,458.643a9.721,9.721,0,0,1,9.826-9.616,9.825,9.825,0,0,1,6.068,2.1,1.512,1.512,0,1,1-1.848,2.394,7.1,7.1,0,0,0-4.2-1.428,6.551,6.551,0,0,0-4.787,1.953,6.3,6.3,0,0,0,0,9.2,6.551,6.551,0,0,0,4.787,1.953,7.37,7.37,0,0,0,3.653-1.008v-3.653h-3.8a1.533,1.533,0,0,1-1.533-1.512,1.491,1.491,0,0,1,1.533-1.491h5.291a1.491,1.491,0,0,1,1.554,1.491V464.9a2.354,2.354,0,0,1,0,.441.437.437,0,0,0,0,.147h0a1.323,1.323,0,0,1-.5.651,9.826,9.826,0,0,1-6.047,2.1,9.679,9.679,0,0,1-9.994-9.6Z" transform="translate(-685.931 -168.123)" fill="#595cff"/>
        <path id="Path_9352" data-name="Path 9352" d="M907.582,451.149a1.449,1.449,0,0,1,1.47-1.47,1.47,1.47,0,0,1,1.491,1.47v15.7a1.47,1.47,0,0,1-1.491,1.449,1.449,1.449,0,0,1-1.47-1.449Z" transform="translate(-690.357 -168.229)" fill="#595cff"/>
        <path id="Path_9353" data-name="Path 9353" d="M919.88,466.887a1.47,1.47,0,0,1-1.449,1.449,1.449,1.449,0,0,1-1.449-1.449V451.413h0a1.407,1.407,0,0,1,.567-1.239,1.491,1.491,0,0,1,2.1.336l8.587,11.884v-10.96a1.47,1.47,0,0,1,1.449-1.449,1.491,1.491,0,0,1,1.47,1.449v15.474a1.47,1.47,0,0,1-1.47,1.449,1.449,1.449,0,0,1-1.092-.525l-.147-.168-8.5-11.821Z" transform="translate(-691.884 -168.262)" fill="#595cff"/>
        <path id="Path_9354" data-name="Path 9354" d="M722.982,536.715v-8.692a.8.8,0,0,1,.8-.8H728.5a.819.819,0,0,1,.819.8.84.84,0,0,1-.819.84h-3.968v2.688h3.422a.819.819,0,0,1,0,1.638h-3.422V535.9H728.5a.819.819,0,1,1,0,1.617H723.7A.8.8,0,0,1,722.982,536.715Z" transform="translate(-660.349 -180.834)" fill="#263238"/>
        <path id="Path_9355" data-name="Path 9355" d="M739.346,533.751v3.527a.756.756,0,0,1-.777.777.8.8,0,0,1-.8-.777v-3.527a1.491,1.491,0,0,0-1.512-1.47,1.512,1.512,0,0,0-1.491,1.512v3.632h0a.861.861,0,0,1-.735.462h-.147a.84.84,0,0,1-.651-.777v-3.485h0v-2.268a.777.777,0,0,1,.8-.8.735.735,0,0,1,.693.441,3.233,3.233,0,0,1,1.575-.441,3.149,3.149,0,0,0,4.619,0,3.065,3.065,0,0,1,3.065,3.086v3.485a.777.777,0,0,1-.777.777.8.8,0,0,1-.8-.777v-3.485a1.491,1.491,0,0,0-1.491-1.512,1.533,1.533,0,0,0-1.575,1.617Z" transform="translate(-662.016 -181.376)" fill="#263238"/>
        <path id="Path_9356" data-name="Path 9356" d="M755.968,534.43v2.876a.773.773,0,0,1-1.533.147,3.422,3.422,0,0,1-4.472-.441,3.842,3.842,0,0,1,0-5.186,3.359,3.359,0,0,1,4.472-.441.777.777,0,0,1,.756-.651.8.8,0,0,1,.777.8Zm-1.554,0a2.1,2.1,0,0,0-.567-1.512,1.847,1.847,0,0,0-1.386-.609,1.764,1.764,0,0,0-1.365.609,2.366,2.366,0,0,0,0,3.023,1.806,1.806,0,0,0,1.365.567,1.89,1.89,0,0,0,1.386-.567,2.268,2.268,0,0,0,.567-1.512Z" transform="translate(-664.572 -181.404)" fill="#263238"/>
        <path id="Path_9357" data-name="Path 9357" d="M762.385,528.317a.8.8,0,0,1-.8.819.819.819,0,0,1-.8-.819v-.294a.8.8,0,0,1,.8-.8.777.777,0,0,1,.8.8Zm0,2.666v5.732a.8.8,0,1,1-1.6,0v-5.732a.8.8,0,1,1,1.6,0Z" transform="translate(-666.495 -180.834)" fill="#263238"/>
        <path id="Path_9358" data-name="Path 9358" d="M766.271,527.225a.8.8,0,0,1,.819.8v8.692a.8.8,0,0,1-.819.8.819.819,0,0,1-.819-.8v-8.692A.819.819,0,0,1,766.271,527.225Z" transform="translate(-667.253 -180.834)" fill="#263238"/>
        <path id="Path_9359" data-name="Path 9359" d="M726.4,604.61h-1.806V607.8a.84.84,0,0,1-.84.819.819.819,0,0,1-.8-.819v-8.755a.8.8,0,0,1,.8-.819H726.4a3.149,3.149,0,1,1,0,6.3Zm-1.806-1.638H726.4a1.512,1.512,0,1,0,0-3.023h-1.806Z" transform="translate(-660.345 -192.376)" fill="#263238"/>
        <path id="Path_9360" data-name="Path 9360" d="M739.1,605.532v2.9a.8.8,0,0,1-.777.777.861.861,0,0,1-.777-.63,3.4,3.4,0,0,1-4.451-.441,3.842,3.842,0,0,1-1.008-2.6,3.716,3.716,0,0,1,1.008-2.582,3.4,3.4,0,0,1,2.5-1.113,3.3,3.3,0,0,1,1.953.651.84.84,0,0,1,.777-.651.8.8,0,0,1,.777.8Zm-1.554,0a2.1,2.1,0,0,0-.588-1.512,1.806,1.806,0,0,0-1.365-.609,1.764,1.764,0,0,0-1.365.609,2.289,2.289,0,0,0,0,3.023,1.827,1.827,0,0,0,1.365.588,1.848,1.848,0,0,0,1.365-.588A2.1,2.1,0,0,0,737.542,605.532Z" transform="translate(-661.829 -192.962)" fill="#263238"/>
        <path id="Path_9361" data-name="Path 9361" d="M743.433,607.107a.777.777,0,0,1,1.113-.126,2.855,2.855,0,0,0,1.617.651,2.1,2.1,0,0,0,1.008-.294.609.609,0,0,0,.252-.441.168.168,0,0,0,0-.147.377.377,0,0,0-.189-.168,3.506,3.506,0,0,0-1.176-.42h0a6.068,6.068,0,0,1-1.281-.378,2.478,2.478,0,0,1-1.008-.861,1.7,1.7,0,0,1-.252-.924,2.1,2.1,0,0,1,.861-1.617,3.169,3.169,0,0,1,1.827-.546,3.737,3.737,0,0,1,2.2.819.84.84,0,0,1,.231,1.092.777.777,0,0,1-1.092.189,2.582,2.582,0,0,0-1.344-.525,1.6,1.6,0,0,0-.9.252.441.441,0,0,0-.231.336v.126c0,.126,0,0,.147.147a3.107,3.107,0,0,0,1.092.357h0a5.777,5.777,0,0,1,1.365.441,2.1,2.1,0,0,1,1.05.861,1.974,1.974,0,0,1,.273.966,2.1,2.1,0,0,1-.924,1.722,3.422,3.422,0,0,1-1.911.588,4.2,4.2,0,0,1-2.625-1.029A.777.777,0,0,1,743.433,607.107Z" transform="translate(-663.647 -192.962)" fill="#263238"/>
        <path id="Path_9362" data-name="Path 9362" d="M751.9,607.107a.756.756,0,0,1,1.092-.126,2.918,2.918,0,0,0,1.638.651,1.89,1.89,0,0,0,.987-.294.588.588,0,0,0,.273-.441.294.294,0,0,0,0-.147.5.5,0,0,0-.189-.168,3.505,3.505,0,0,0-1.176-.42h0a5.711,5.711,0,0,1-1.281-.378,2.352,2.352,0,0,1-1.008-.861,1.7,1.7,0,0,1-.252-.924,2.1,2.1,0,0,1,.861-1.617,3.108,3.108,0,0,1,1.806-.546,3.7,3.7,0,0,1,2.2.819.819.819,0,0,1,.252,1.092.777.777,0,0,1-1.092.189,2.645,2.645,0,0,0-1.365-.525,1.512,1.512,0,0,0-.882.252.441.441,0,0,0-.231.336.231.231,0,0,0,0,.126.65.65,0,0,0,.168.147,2.958,2.958,0,0,0,1.071.357h0a6.09,6.09,0,0,1,1.365.441,2.1,2.1,0,0,1,1.05.861,1.974,1.974,0,0,1,.273.966,2.1,2.1,0,0,1-.924,1.722,3.486,3.486,0,0,1-1.911.588,4.2,4.2,0,0,1-2.625-1.029.735.735,0,0,1-.1-1.071Z" transform="translate(-665.021 -192.962)" fill="#263238"/>
        <path id="Path_9363" data-name="Path 9363" d="M770.317,603.054l-2.435,5.711v.126h-.987a.294.294,0,0,1,0-.126l-1.092-2.541-1.029,2.541v.126h0v.1h-.882v-.126l-2.414-5.711a.735.735,0,0,1,.42-1.008.714.714,0,0,1,.966.441l1.743,3.968,1.029-2.477a.777.777,0,0,1,.714-.462.756.756,0,0,1,.735.462l1.05,2.477,1.722-3.968a.735.735,0,0,1,.987-.441A.777.777,0,0,1,770.317,603.054Z" transform="translate(-666.596 -193.004)" fill="#263238"/>
        <path id="Path_9364" data-name="Path 9364" d="M776.034,608.136a3.737,3.737,0,0,1-1.029-2.6,3.779,3.779,0,0,1,1.029-2.561,3.422,3.422,0,0,1,2.519-1.134,3.213,3.213,0,0,1,2.457,1.134,3.611,3.611,0,0,1,1.029,2.561,3.57,3.57,0,0,1-1.029,2.6,3.275,3.275,0,0,1-2.457,1.113A3.464,3.464,0,0,1,776.034,608.136Zm.588-2.6a2.457,2.457,0,0,0,.525,1.575,2.091,2.091,0,0,0,2.772,0,2.372,2.372,0,0,0,.567-1.575,2.268,2.268,0,0,0-.567-1.533,2.1,2.1,0,0,0-1.365-.546,2.2,2.2,0,0,0-1.407.546,2.331,2.331,0,0,0-.525,1.533Z" transform="translate(-668.806 -192.962)" fill="#263238"/>
        <path id="Path_9365" data-name="Path 9365" d="M790.571,602.61a.8.8,0,0,1-.777.8,1.428,1.428,0,0,0-.882.273,2.1,2.1,0,0,0-.672.714,4.875,4.875,0,0,0-.609,1.218v2.813a.8.8,0,0,1-1.6,0V602.61a.8.8,0,1,1,1.6,0v.1a2.105,2.105,0,0,1,.315-.294,3.212,3.212,0,0,1,1.848-.567.756.756,0,0,1,.777.756Z" transform="translate(-670.599 -192.958)" fill="#263238"/>
        <path id="Path_9366" data-name="Path 9366" d="M799.886,607.847a.819.819,0,0,1-.8.8.8.8,0,0,1-.777-.63,3.653,3.653,0,1,1-2.1-6.74,3.3,3.3,0,0,1,1.953.63v-2.834a.819.819,0,0,1,1.617,0v5.816h0Zm-3.569-4.955a1.869,1.869,0,0,0-1.386.588,2.1,2.1,0,0,0,0,2.96,1.869,1.869,0,0,0,1.386.588,1.827,1.827,0,0,0,1.365-.588,2.1,2.1,0,0,0,0-2.96,1.827,1.827,0,0,0-1.365-.588Z" transform="translate(-671.684 -192.401)" fill="#263238"/>
        <path id="Path_9367" data-name="Path 9367" d="M721.152,687.785l34.811-.315,34.832-.105,69.643-.21,69.643.21,34.832.105,34.811.315-34.811.294-34.832.105-69.643.21-69.643-.21-34.832-.105Z" transform="translate(-660.052 -206.831)" fill="#455a64"/>
        <path id="Path_9368" data-name="Path 9368" d="M721.152,510.534l34.811-.294,34.832-.1,69.643-.21,69.643.21,34.832.1,34.811.294-34.811.315-34.832.1-69.643.21-69.643-.21-34.832-.1Z" transform="translate(-660.052 -178.022)" fill="#ebebeb"/>
        <path id="Path_9369" data-name="Path 9369" d="M913.34,385.392a77.979,77.979,0,1,1,33.992-87.641A78.063,78.063,0,0,1,913.34,385.392Z" transform="translate(-671.949 -134.323)" fill="#595cff"/>
        <circle id="Ellipse_41" data-name="Ellipse 41" cx="23.725" cy="23.725" r="23.725" transform="translate(174.767 154.157) rotate(-4.72)" fill="#fff"/>
        <path id="Path_9370" data-name="Path 9370" d="M920.516,393.918v9.805a78.063,78.063,0,0,1-82.031,0V393.96a41.026,41.026,0,0,1,82.031,0Z" transform="translate(-679.125 -152.653)" fill="#fff"/>
        <path id="Path_9371" data-name="Path 9371" d="M721.152,809.205q14.277-.357,28.512-.483l28.533-.147,28.533.147q14.235.126,28.512.483-14.277.357-28.512.483l-28.533.147-28.533-.231Q735.429,809.6,721.152,809.205Z" transform="translate(-660.052 -226.568)" fill="#455a64"/>
        <path id="Path_9372" data-name="Path 9372" d="M917.61,809.205q14.256-.357,28.533-.483l28.513-.147,28.533.147q14.256.126,28.534.483-14.256.357-28.534.483l-28.533.147L946.1,809.6Q931.846,809.6,917.61,809.205Z" transform="translate(-691.987 -226.568)" fill="#455a64"/>
        <path id="Path_9373" data-name="Path 9373" d="M878.9,811.243a3.8,3.8,0,0,1-1.029-2.646,3.884,3.884,0,0,1,1.029-2.6,3.527,3.527,0,0,1,2.582-1.155,3.275,3.275,0,0,1,2.5,1.155,3.716,3.716,0,0,1,1.05,2.6,3.632,3.632,0,0,1-1.05,2.646,3.254,3.254,0,0,1-2.5,1.134,3.507,3.507,0,0,1-2.583-1.134Zm.609-2.646a2.373,2.373,0,0,0,.546,1.6,2.085,2.085,0,0,0,2.813,0,2.289,2.289,0,0,0,.588-1.6,2.226,2.226,0,0,0-.588-1.554,2.029,2.029,0,0,0-2.813,0,2.289,2.289,0,0,0-.546,1.554Z" transform="translate(-685.527 -225.961)" fill="#455a64"/>
        <path id="Path_9374" data-name="Path 9374" d="M893.727,805.629a.8.8,0,0,1-.777.8,1.448,1.448,0,0,0-.9.273,2.309,2.309,0,0,0-.693.735,4.324,4.324,0,0,0-.609,1.26v2.834a.819.819,0,0,1-.84.8.8.8,0,0,1-.777-.8v-5.9a.777.777,0,0,1,.756-.84.8.8,0,0,1,.84.777v.1a1.388,1.388,0,0,1,.315-.294,3.17,3.17,0,0,1,1.89-.588.756.756,0,0,1,.8.84Z" transform="translate(-687.357 -225.952)" fill="#455a64"/>
        <rect id="Rectangle_5239" data-name="Rectangle 5239" width="22.046" height="22.046" transform="translate(188.335 602.1)" fill="#455a64"/>
        <path id="Path_9375" data-name="Path 9375" d="M881.764,846.584h-2.939V843.2H881.7v-3.317a3.716,3.716,0,0,1,3.3-3.569,26.8,26.8,0,0,1,3.674,0V839.3h-1.323a7.476,7.476,0,0,0-1.2,0,1.092,1.092,0,0,0-.924,1.071c0,.861,0,1.722,0,2.667h3.359c-.147,1.092-.273,2.1-.42,3.149a1.081,1.081,0,0,1-.42.21h-2.5v8.65H881.68Z" transform="translate(-685.682 -231.067)" fill="#fff"/>
        <rect id="Rectangle_5240" data-name="Rectangle 5240" width="143.339" height="45.582" transform="translate(127.573 509.697)" fill="#595cff"/>
        <path id="Path_9376" data-name="Path 9376" d="M848.338,754.533V742.188a1.155,1.155,0,1,1,2.31,0v11.17h5.69a1.155,1.155,0,0,1,0,2.31h-6.845a1.155,1.155,0,0,1-1.155-1.134Z" transform="translate(-680.726 -215.589)" fill="#fff"/>
        <path id="Path_9377" data-name="Path 9377" d="M872.844,742.682a7.747,7.747,0,0,1,0,10.6,6.865,6.865,0,0,1-5.018,2.225,7.055,7.055,0,0,1-5.123-2.226,7.81,7.81,0,0,1,0-10.6,7.055,7.055,0,0,1,5.123-2.226A6.865,6.865,0,0,1,872.844,742.682Zm-.273,5.312a5.438,5.438,0,0,0-1.428-3.674,4.514,4.514,0,0,0-6.7,0,5.332,5.332,0,0,0-1.428,3.674,5.228,5.228,0,0,0,1.428,3.632,4.472,4.472,0,0,0,6.7,0,5.334,5.334,0,0,0,1.512-3.632Z" transform="translate(-682.724 -215.495)" fill="#fff"/>
        <path id="Path_9378" data-name="Path 9378" d="M881.884,748.013a7.727,7.727,0,0,1,12.493-5.921,1.176,1.176,0,0,1,.231,1.68,1.218,1.218,0,0,1-1.7.189,5.353,5.353,0,0,0-3.3-1.134,5.207,5.207,0,0,0-3.779,1.533,5,5,0,0,0,0,7.244,5.207,5.207,0,0,0,3.779,1.533,5.794,5.794,0,0,0,2.876-.8v-2.876h-3a1.2,1.2,0,0,1-1.2-1.176,1.176,1.176,0,0,1,1.2-1.175h4.2a1.176,1.176,0,0,1,1.218,1.176v4.619a1.812,1.812,0,0,1,0,.357v.1h0a.987.987,0,0,1-.4.5,7.747,7.747,0,0,1-12.472-5.879Z" transform="translate(-686.179 -215.494)" fill="#fff"/>
        <path id="Path_9379" data-name="Path 9379" d="M903.194,742.113a1.134,1.134,0,0,1,1.155-1.155,1.176,1.176,0,0,1,1.176,1.155v12.408a1.155,1.155,0,0,1-1.176,1.134,1.113,1.113,0,0,1-1.155-1.134Z" transform="translate(-689.643 -215.577)" fill="#fff"/>
        <path id="Path_9380" data-name="Path 9380" d="M912.954,754.565a1.155,1.155,0,0,1-2.289,0V742.409h0a1.133,1.133,0,0,1,.462-.966,1.155,1.155,0,0,1,1.6.252l6.761,9.343V742.43A1.134,1.134,0,0,1,920.6,741.3a1.155,1.155,0,0,1,1.155,1.134v12.136A1.155,1.155,0,0,1,920.6,755.7a1.092,1.092,0,0,1-.84-.42.21.21,0,0,1-.1-.126l-6.7-9.28Z" transform="translate(-690.858 -215.621)" fill="#fff"/>
        <rect id="Rectangle_5241" data-name="Rectangle 5241" width="278.595" height="24.67" transform="translate(61.1 367.156)" fill="#ebebeb"/>
        <path id="Path_9381" data-name="Path 9381" d="M733.861,564.195a.4.4,0,0,1,.42-.42.42.42,0,0,1,.441.42v4.766a2.687,2.687,0,1,0,5.375,0v-4.766a.441.441,0,0,1,.882,0v4.766a3.569,3.569,0,1,1-7.118,0Z" transform="translate(-662.116 -186.772)" fill="#a6a6a6"/>
        <path id="Path_9382" data-name="Path 9382" d="M746.4,570.724a.4.4,0,0,1,.588,0,4.6,4.6,0,0,0,2.688,1.029,2.582,2.582,0,0,0,1.659-.546,1.3,1.3,0,0,0,.651-1.071,1.365,1.365,0,0,0-.63-1.071,4.429,4.429,0,0,0-1.848-.63h0a5.06,5.06,0,0,1-1.995-.672,1.869,1.869,0,0,1-.945-1.575,2.226,2.226,0,0,1,.945-1.722,3.8,3.8,0,0,1,2.1-.588,4.7,4.7,0,0,1,2.6.945.441.441,0,0,1,.126.609.42.42,0,0,1-.588.126,3.884,3.884,0,0,0-2.1-.861,2.688,2.688,0,0,0-1.659.483,1.323,1.323,0,0,0-.546,1.008,1.029,1.029,0,0,0,.5.882,4.2,4.2,0,0,0,1.785.588h0a6.152,6.152,0,0,1,2.1.714,2.1,2.1,0,0,1,0,3.548,3.4,3.4,0,0,1-2.1.714,5.375,5.375,0,0,1-3.233-1.26.4.4,0,0,1-.1-.651Z" transform="translate(-664.136 -186.792)" fill="#a6a6a6"/>
        <path id="Path_9383" data-name="Path 9383" d="M756.878,568.267a4.325,4.325,0,0,1,4.2-4.388,4.2,4.2,0,0,1,4.2,4.073h0a.4.4,0,0,1-.42.4h-7.118a3.422,3.422,0,0,0,3.38,3.359,3.276,3.276,0,0,0,2.813-1.6.42.42,0,0,1,.567-.147.441.441,0,0,1,.147.609,4.2,4.2,0,0,1-3.527,1.995,4.3,4.3,0,0,1-4.241-4.3Zm.9-.693h6.614a3.359,3.359,0,0,0-3.275-2.834,3.423,3.423,0,0,0-3.338,2.751Z" transform="translate(-665.859 -186.792)" fill="#a6a6a6"/>
        <path id="Path_9384" data-name="Path 9384" d="M770.141,564.245a.441.441,0,0,1,.462-.441.42.42,0,0,1,.4.441v1.911l.126-.21a4.2,4.2,0,0,1,3.506-2.1.431.431,0,0,1,0,.861,3.17,3.17,0,0,0-2.54,1.428,7.769,7.769,0,0,0-1.05,2.1.231.231,0,0,0,0,.147V572.2a.42.42,0,0,1-.4.441.441.441,0,0,1-.462-.441Z" transform="translate(-668.015 -186.78)" fill="#a6a6a6"/>
        <path id="Path_9385" data-name="Path 9385" d="M785.774,567.36a2.688,2.688,0,0,0-2.709-2.688,2.751,2.751,0,0,0-2.708,2.688v4.829a.27.27,0,0,1-.315.357h-.1a.546.546,0,0,1-.294-.231h0v-7.957a.441.441,0,0,1,.441-.441.42.42,0,0,1,.4.441v.84a3.527,3.527,0,0,1,6.3,2.268v4.745a.42.42,0,1,1-.84,0Z" transform="translate(-669.56 -186.788)" fill="#a6a6a6"/>
        <path id="Path_9386" data-name="Path 9386" d="M799.73,564.22v7.873a.462.462,0,0,1-.441.441.441.441,0,0,1-.42-.441v-1.3a4.2,4.2,0,0,1-3.3,1.743,4.388,4.388,0,0,1,0-8.755,4.2,4.2,0,0,1,3.3,1.722V564.22a.42.42,0,0,1,.42-.441.441.441,0,0,1,.441.441Zm-.861,3.926a3.3,3.3,0,1,0-3.3,3.527,3.422,3.422,0,0,0,3.3-3.422Z" transform="translate(-671.485 -186.776)" fill="#a6a6a6"/>
        <path id="Path_9387" data-name="Path 9387" d="M818.3,567.377a2.75,2.75,0,0,0-2.708-2.708,2.709,2.709,0,0,0-2.688,2.708v4.829h0a.462.462,0,0,1-.21.231.483.483,0,0,1-.231,0h-.231v-4.85a2.708,2.708,0,1,0-5.4,0v4.766a.357.357,0,0,1-.189.336.188.188,0,0,1-.1,0h-.168a.441.441,0,0,1-.357-.336v-7.978a.42.42,0,0,1,.4-.42.4.4,0,0,1,.42.42v.84a3.527,3.527,0,0,1,5.816.609,3.633,3.633,0,0,1,3.149-1.869,3.548,3.548,0,0,1,3.548,3.548v4.766a.42.42,0,1,1-.84,0Z" transform="translate(-673.847 -186.804)" fill="#a6a6a6"/>
        <path id="Path_9388" data-name="Path 9388" d="M825.272,568.273a4.2,4.2,0,1,1,8.4-.315h0a.42.42,0,0,1-.441.4h-7.16a3.422,3.422,0,0,0,3.38,3.359,3.275,3.275,0,0,0,2.813-1.6.441.441,0,0,1,.588-.147.462.462,0,0,1,.126.609,4.2,4.2,0,0,1-3.527,1.995,4.3,4.3,0,0,1-4.178-4.3Zm.9-.693h6.635a3.38,3.38,0,0,0-3.3-2.834,3.422,3.422,0,0,0-3.338,2.751Z" transform="translate(-676.977 -186.798)" fill="#a6a6a6"/>
        <path id="Path_9389" data-name="Path 9389" d="M844.416,559.279a6.3,6.3,0,0,1,6.3,6.3,6.026,6.026,0,0,1-.672,2.855,2.918,2.918,0,0,1-1.617,1.365,1.091,1.091,0,0,1-.357,0,1.239,1.239,0,0,1-1.008-.483,1.511,1.511,0,0,1-.294-.861v-.609a3.045,3.045,0,0,1-2.289,1.071,3.359,3.359,0,0,1,0-6.7,3.233,3.233,0,0,1,3.149,3.317v2.855h0a.713.713,0,0,0,.1.4.378.378,0,0,0,.315.126h.147a1.806,1.806,0,0,0,1.029-.924,5,5,0,0,0,.588-2.457,5.375,5.375,0,1,0-5.354,5.4,4.662,4.662,0,0,0,1.323-.147.4.4,0,0,1,.5.315.378.378,0,0,1-.294.5,6.129,6.129,0,0,1-1.533.21,6.3,6.3,0,0,1,0-12.6Zm0,8.692a2.352,2.352,0,1,0-1.646-.755A2.372,2.372,0,0,0,844.416,567.971Z" transform="translate(-679.072 -186.034)" fill="#a6a6a6"/>
        <path id="Path_9390" data-name="Path 9390" d="M872.442,567.377a2.708,2.708,0,0,0-5.417,0v4.829h0a.42.42,0,0,1-.231.231.358.358,0,0,1-.21,0h-.231v-4.85a2.708,2.708,0,1,0-5.4,0v4.766a.357.357,0,0,1-.189.336h-.189a.525.525,0,0,1-.357-.336v-7.978a.441.441,0,0,1,.42-.42.4.4,0,0,1,.42.42v.84a3.527,3.527,0,0,1,5.816.609,3.633,3.633,0,0,1,3.149-1.869,3.548,3.548,0,0,1,3.548,3.548v4.766a.441.441,0,0,1-.441.42.42.42,0,0,1-.4-.42Z" transform="translate(-682.658 -186.804)" fill="#a6a6a6"/>
        <path id="Path_9391" data-name="Path 9391" d="M887.308,564.22v7.873a.462.462,0,0,1-.441.441.441.441,0,0,1-.42-.441v-1.3a4.2,4.2,0,0,1-3.275,1.743,4.388,4.388,0,0,1,0-8.755,4.2,4.2,0,0,1,3.275,1.722V564.22a.42.42,0,0,1,.42-.441.441.441,0,0,1,.441.441Zm-.861,3.926a3.3,3.3,0,1,0-3.275,3.527,3.4,3.4,0,0,0,3.275-3.422Z" transform="translate(-685.725 -186.776)" fill="#a6a6a6"/>
        <path id="Path_9392" data-name="Path 9392" d="M893.364,560.792a.441.441,0,1,1,.861,0v.4a.441.441,0,1,1-.861,0Zm0,2.855a.42.42,0,0,1,.42-.441.441.441,0,0,1,.441.441v7.873a.441.441,0,1,1-.861,0Z" transform="translate(-688.044 -186.203)" fill="#a6a6a6"/>
        <path id="Path_9393" data-name="Path 9393" d="M899.03,559.736a.43.43,0,0,1,.861,0v11.632a.441.441,0,1,1-.861,0Z" transform="translate(-688.965 -186.05)" fill="#a6a6a6"/>
        <path id="Path_9394" data-name="Path 9394" d="M904.9,572.1a.882.882,0,0,1,.882.882.9.9,0,1,1-1.785,0,.882.882,0,0,1,.9-.882Z" transform="translate(-689.772 -188.129)" fill="#a6a6a6"/>
        <path id="Path_9395" data-name="Path 9395" d="M907.908,568.271A4.409,4.409,0,0,1,912.4,563.9a4.556,4.556,0,0,1,2.792.966.4.4,0,0,1,0,.588.441.441,0,0,1-.588,0,3.569,3.569,0,1,0-2.247,6.3,3.7,3.7,0,0,0,2.247-.777.441.441,0,0,1,.588,0,.4.4,0,0,1,0,.609,4.493,4.493,0,0,1-7.244-3.443Z" transform="translate(-690.41 -186.796)" fill="#a6a6a6"/>
        <path id="Path_9396" data-name="Path 9396" d="M924.141,563.778a4.388,4.388,0,1,1-4.2,4.367,4.2,4.2,0,0,1,4.2-4.367Zm0,7.894a3.527,3.527,0,1,0-3.275-3.527,3.422,3.422,0,0,0,3.275,3.527Z" transform="translate(-692.365 -186.775)" fill="#a6a6a6"/>
        <path id="Path_9397" data-name="Path 9397" d="M946.385,567.377a2.75,2.75,0,0,0-2.708-2.708,2.708,2.708,0,0,0-2.688,2.708v4.829h0a.463.463,0,0,1-.21.231.481.481,0,0,1-.231,0h-.231v-4.85a2.708,2.708,0,1,0-5.4,0v4.766a.357.357,0,0,1-.189.336h-.168a.441.441,0,0,1-.357-.336v-7.978a.42.42,0,0,1,.4-.42.4.4,0,0,1,.42.42v.84a3.527,3.527,0,0,1,5.816.609,3.633,3.633,0,0,1,3.149-1.869,3.548,3.548,0,0,1,3.548,3.548v4.766a.42.42,0,0,1-.42.42.441.441,0,0,1-.42-.42Z" transform="translate(-694.685 -186.804)" fill="#a6a6a6"/>
        <rect id="Rectangle_5242" data-name="Rectangle 5242" width="278.595" height="24.67" transform="translate(61.1 426.721)" fill="#ebebeb"/>
        <path id="Path_9398" data-name="Path 9398" d="M735.98,637.725l-1.638,1.113a.5.5,0,0,1-.273.105.378.378,0,0,1-.357-.378.357.357,0,0,1,.252-.336l1.827-.882-1.827-.861a.4.4,0,0,1-.252-.336.378.378,0,0,1,.357-.378.357.357,0,0,1,.273.1l1.638,1.092-.147-1.932a.357.357,0,1,1,.714,0l-.147,1.932,1.638-1.092a.371.371,0,0,1,.63.273.357.357,0,0,1-.252.336l-1.827.861,1.827.882a.336.336,0,0,1,.252.336.378.378,0,0,1-.357.378.5.5,0,0,1-.273-.1l-1.638-1.113.147,1.953a.357.357,0,0,1-.714,0Z" transform="translate(-662.094 -198.301)" fill="#a6a6a6"/>
        <path id="Path_9399" data-name="Path 9399" d="M745.131,637.717l-1.617,1.113a.566.566,0,0,1-.294.1.378.378,0,0,1-.357-.378.357.357,0,0,1,.252-.336l1.848-.882-1.848-.861a.4.4,0,0,1-.252-.336.378.378,0,0,1,.357-.378.4.4,0,0,1,.294.1l1.617,1.092-.147-1.932a.378.378,0,0,1,.357-.4.357.357,0,0,1,.357.4l-.126,1.932,1.617-1.092a.4.4,0,0,1,.294-.1.372.372,0,0,1,.105.714l-1.848.861,1.848.882a.336.336,0,0,1,.231.336.378.378,0,0,1-.336.378.5.5,0,0,1-.294-.1l-1.617-1.113.126,1.953a.336.336,0,0,1-.357.378.357.357,0,0,1-.357-.378Z" transform="translate(-663.581 -198.293)" fill="#a6a6a6"/>
        <path id="Path_9400" data-name="Path 9400" d="M754.239,637.725l-1.638,1.113a.5.5,0,0,1-.273.105.378.378,0,0,1-.189-.378.357.357,0,0,1,.252-.336l1.827-.882-1.827-.861a.4.4,0,0,1-.252-.336.378.378,0,0,1,.357-.378.357.357,0,0,1,.273.1l1.638,1.092-.147-1.932a.357.357,0,0,1,.714,0l-.147,1.932,1.617-1.092a.462.462,0,0,1,.294-.105.378.378,0,0,1,.357.378.357.357,0,0,1-.252.336l-1.827.861,1.827.882a.336.336,0,0,1,.252.336.378.378,0,0,1-.357.378.629.629,0,0,1-.294-.1l-1.617-1.113.147,1.953a.357.357,0,0,1-.714,0Z" transform="translate(-665.089 -198.301)" fill="#a6a6a6"/>
        <path id="Path_9401" data-name="Path 9401" d="M763.458,637.717l-1.617,1.113a.565.565,0,0,1-.294.1.378.378,0,0,1-.357-.378.357.357,0,0,1,.252-.336l1.848-.882-1.848-.861a.4.4,0,0,1-.252-.336.378.378,0,0,1,.357-.378.4.4,0,0,1,.294.1l1.617,1.092-.147-1.932a.378.378,0,0,1,.357-.4.357.357,0,0,1,.357.4l-.126,1.932,1.617-1.092a.4.4,0,0,1,.294-.1.372.372,0,0,1,.1.714l-1.848.861,1.848.882a.336.336,0,0,1,.231.336.378.378,0,0,1-.336.378.5.5,0,0,1-.294-.1l-1.617-1.113.126,1.953a.336.336,0,0,1-.357.378.357.357,0,0,1-.357-.378Z" transform="translate(-666.56 -198.293)" fill="#a6a6a6"/>
        <path id="Path_9402" data-name="Path 9402" d="M772.634,637.725,771,638.838a.5.5,0,0,1-.273.105.378.378,0,0,1-.357-.378.357.357,0,0,1,.252-.336l1.827-.882-1.827-.861a.4.4,0,0,1-.252-.336.378.378,0,0,1,.357-.378.357.357,0,0,1,.273.1l1.638,1.092-.147-1.932a.357.357,0,0,1,.714,0l-.147,1.932,1.617-1.092a.42.42,0,0,1,.294-.1.378.378,0,0,1,.357.378.357.357,0,0,1-.252.336l-1.827.861,1.827.882a.336.336,0,0,1,.252.336.378.378,0,0,1-.357.378.567.567,0,0,1-.294-.1l-1.617-1.113.147,1.953a.357.357,0,0,1-.714,0Z" transform="translate(-668.052 -198.301)" fill="#a6a6a6"/>
        <path id="Path_9403" data-name="Path 9403" d="M781.769,637.713l-1.617,1.113a.567.567,0,0,1-.294.1.378.378,0,0,1-.357-.378.357.357,0,0,1,.252-.336l1.848-.882-1.932-.882a.4.4,0,0,1-.252-.336.378.378,0,0,1,.357-.378.4.4,0,0,1,.294.1l1.617,1.092L781.538,635a.359.359,0,1,1,.714,0l-.126,1.932,1.617-1.092a.378.378,0,0,1,.273-.1.366.366,0,0,1,.105.714l-1.827.861,1.827.882a.336.336,0,0,1,.252.336.378.378,0,0,1-.357.378.5.5,0,0,1-.273-.105l-1.617-1.113.126,1.953a.336.336,0,0,1-.357.378.357.357,0,0,1-.357-.378Z" transform="translate(-669.523 -198.289)" fill="#a6a6a6"/>
        <path id="Path_9404" data-name="Path 9404" d="M790.961,637.725l-1.638,1.113a.5.5,0,0,1-.273.105.378.378,0,0,1-.357-.378.357.357,0,0,1,.252-.336l1.827-.882-1.827-.861a.4.4,0,0,1-.252-.336.378.378,0,0,1,.357-.378.357.357,0,0,1,.273.1l1.638,1.092-.147-1.932a.357.357,0,0,1,.714,0l-.147,1.932L793,635.877a.42.42,0,0,1,.294-.1.378.378,0,0,1,.357.378.357.357,0,0,1-.252.336l-1.848.861,1.848.882a.336.336,0,0,1,.252.336.378.378,0,0,1-.357.378.567.567,0,0,1-.294-.1l-1.617-1.113.147,1.953a.357.357,0,0,1-.714,0Z" transform="translate(-671.031 -198.301)" fill="#a6a6a6"/>
        <path id="Path_9405" data-name="Path 9405" d="M800.112,637.717,798.5,638.83a.566.566,0,0,1-.294.1.378.378,0,0,1-.357-.378.357.357,0,0,1,.252-.336l1.848-.882-1.848-.861a.4.4,0,0,1-.252-.336.378.378,0,0,1,.357-.378.4.4,0,0,1,.294.1l1.617,1.092-.147-1.932a.359.359,0,1,1,.714,0l-.126,1.932,1.617-1.092a.378.378,0,0,1,.273-.1.357.357,0,0,1,.357.378.378.378,0,0,1-.231.336l-1.848.861,1.848.882a.357.357,0,0,1,.231.336.378.378,0,0,1-.357.378.5.5,0,0,1-.273-.1l-1.617-1.113.126,1.953a.336.336,0,0,1-.357.378.357.357,0,0,1-.357-.378Z" transform="translate(-672.519 -198.293)" fill="#a6a6a6"/>
      </g>
      <g id="freepik--Table--inject-2" transform="translate(91.849 866.128)">
        <path id="Path_9406" data-name="Path 9406" d="M92.037,1014.809l111.95-.5,111.95-.189,223.922-.357,223.9.357,111.971.189,111.95.5-111.95.525-111.971.189-223.9.336-223.922-.357-111.95-.168Z" transform="translate(-92.037 -1013.759)" fill="#263238"/>
      </g>
      <g id="freepik--Plant--inject-2" transform="translate(852.486 677.733)">
        <path id="Path_9407" data-name="Path 9407" d="M1039.013,868.939c30.108,29.394,35.147,75.06,28.806,114.995-.168.9-1.554.651-1.554-.189,0-9.091.273-18.1.231-27.085-.147-.4-.294-.8-.462-1.2-7.852-5.732-15.075-12.178-19.547-21-5.039-9.889-7.013-21-10.855-31.368-.357-.987.693-.693,1.386-.189,18.309,13.5,24.145,28.03,29.394,47.451a162.511,162.511,0,0,0-3.192-30.234c-3.968-18.434-11.779-36.68-25.027-50.39C1037.732,869.212,1038.488,868.414,1039.013,868.939Z" transform="translate(-1006.045 -801.796)" fill="#263238"/>
        <path id="Path_9408" data-name="Path 9408" d="M1027.636,867.8c-5.186.168-8.4,8.4-12.472,10.855a3.863,3.863,0,0,1-5.711-.882c-3.989-5.585,1.491-12.472,6.656-16.335-3.7,1.533-6.761,4.2-10.729,4.955a3.758,3.758,0,0,1-4.85-2.918c-1.764-7.6,7.789-10.981,14.34-11.149-3.17-2.2-12.283-8.209-7.433-11.149s15.558,5.606,19.043,8.4c5.123,4.2,11.233,10.351,11.464,16.8C1038.239,874.055,1031.6,869.394,1027.636,867.8Z" transform="translate(-1000.317 -797.212)" fill="#595cff"/>
        <path id="Path_9409" data-name="Path 9409" d="M1027.636,867.8c-5.186.168-8.4,8.4-12.472,10.855a3.863,3.863,0,0,1-5.711-.882c-3.989-5.585,1.491-12.472,6.656-16.335-3.7,1.533-6.761,4.2-10.729,4.955a3.758,3.758,0,0,1-4.85-2.918c-1.764-7.6,7.789-10.981,14.34-11.149-3.17-2.2-12.283-8.209-7.433-11.149s15.558,5.606,19.043,8.4c5.123,4.2,11.233,10.351,11.464,16.8C1038.239,874.055,1031.6,869.394,1027.636,867.8Z" transform="translate(-1000.317 -797.212)" opacity="0.1"/>
        <path id="Path_9410" data-name="Path 9410" d="M1030.565,870.435c-6.614-3.023-19.337,1.323-20.429-1.2-2.1-5.1,7.978-8.587,13.458-9.28-5.039-1.365-14.7-3.548-14.424-8.4.357-5.942,14.844-.819,22.172,4.787,9.238,7.1,9.175,13.92,7.664,15.285C1036.905,873.5,1031.656,870.917,1030.565,870.435Z" transform="translate(-1001.755 -798.568)" fill="#595cff"/>
        <path id="Path_9411" data-name="Path 9411" d="M1114.832,865.462c-31.2,28.3-37.982,73.675-33.153,113.819.126.9,1.533.714,1.554-.126.357-9.091.42-18.1.8-27.085l.5-1.176c8.063-5.417,15.537-11.59,20.345-20.261,5.4-9.679,7.789-20.744,12.031-30.927.4-.966-.672-.714-1.386-.231-18.9,12.787-25.2,27.085-31.179,46.191a160.49,160.49,0,0,1,4.346-30.087c4.64-18.267,13.164-36.218,26.917-49.382C1116.218,865.8,1115.378,865.021,1114.832,865.462Z" transform="translate(-1013.314 -801.237)" fill="#263238"/>
        <path id="Path_9412" data-name="Path 9412" d="M1126.205,864.82c5.165.378,8.1,8.776,12.031,11.338a3.884,3.884,0,0,0,5.753-.693c4.2-5.417-1.008-12.6-6.026-16.545,3.632,1.659,6.593,4.43,10.5,5.333a3.737,3.737,0,0,0,4.955-2.708c2.1-7.538-7.37-11.3-13.92-11.695,3.254-2.1,12.6-7.727,7.874-10.876s-15.789,5.039-19.379,7.726c-5.27,3.947-11.611,9.91-12.073,16.4C1115.308,870.573,1122.111,866.143,1126.205,864.82Z" transform="translate(-1019.102 -796.837)" fill="#595cff"/>
        <path id="Path_9413" data-name="Path 9413" d="M1126.205,864.82c5.165.378,8.1,8.776,12.031,11.338a3.884,3.884,0,0,0,5.753-.693c4.2-5.417-1.008-12.6-6.026-16.545,3.632,1.659,6.593,4.43,10.5,5.333a3.737,3.737,0,0,0,4.955-2.708c2.1-7.538-7.37-11.3-13.92-11.695,3.254-2.1,12.6-7.727,7.874-10.876s-15.789,5.039-19.379,7.726c-5.27,3.947-11.611,9.91-12.073,16.4C1115.308,870.573,1122.111,866.143,1126.205,864.82Z" transform="translate(-1019.102 -796.837)" opacity="0.1"/>
        <path id="Path_9414" data-name="Path 9414" d="M1124.5,867.253c6.74-2.75,19.3,2.1,20.471-.4,2.373-5.018-7.642-8.9-13.1-9.784,5.1-1.176,14.844-2.981,14.7-7.874-.126-5.963-14.8-1.386-22.34,3.947-9.511,6.719-9.7,13.563-8.23,14.97C1118.051,870.088,1123.405,867.715,1124.5,867.253Z" transform="translate(-1019.01 -798.158)" fill="#595cff"/>
        <path id="Path_9415" data-name="Path 9415" d="M1078.692,934.18a304.079,304.079,0,0,1-9.679,44.763,1.113,1.113,0,0,1-2.1-.441c2.1-13.794,5.795-27.295,7.832-41.131a205.754,205.754,0,0,0,2.414-42.2c-1.323-23.242-7.642-47.955-22.8-66.137-.336-.441.378-1.05.714-.651,30.276,35.4,25.426,78.9,25.426,82.7,4.3-14.7,8.734-31.494,24.985-46.38.693-.651,1.239-.336,1.134.756-2.918,27.169-10.5,41.362-26.224,55.891Q1079.742,927.839,1078.692,934.18Z" transform="translate(-1009.087 -795.21)" fill="#263238"/>
        <path id="Path_9416" data-name="Path 9416" d="M1048.867,826.692c-5.459-2.436-13,4.514-18.392,5a4.493,4.493,0,0,1-5.48-3.8c-1.344-7.81,7.811-12.2,15.117-13.605-4.6-.273-9.112.945-13.626-.273a4.3,4.3,0,0,1-3.611-5.522c2.1-8.776,13.626-7.5,20.492-4.367-2.1-3.884-8.587-14.7-2.1-15.306s13.332,13.668,15.537,18.35c3.212,6.887,6.425,16.4,3.4,23.242C1056.74,838.513,1052.268,830.345,1048.867,826.692Z" transform="translate(-1003.953 -788.796)" fill="#595cff"/>
        <path id="Path_9417" data-name="Path 9417" d="M1048.867,826.692c-5.459-2.436-13,4.514-18.392,5a4.493,4.493,0,0,1-5.48-3.8c-1.344-7.81,7.811-12.2,15.117-13.605-4.6-.273-9.112.945-13.626-.273a4.3,4.3,0,0,1-3.611-5.522c2.1-8.776,13.626-7.5,20.492-4.367-2.1-3.884-8.587-14.7-2.1-15.306s13.332,13.668,15.537,18.35c3.212,6.887,6.425,16.4,3.4,23.242C1056.74,838.513,1052.268,830.345,1048.867,826.692Z" transform="translate(-1003.953 -788.796)" opacity="0.1"/>
        <path id="Path_9418" data-name="Path 9418" d="M1051.053,830.334c-5.354-6.467-20.744-8.4-20.6-11.506.294-6.4,12.6-4.913,18.623-2.855-4.556-3.968-13.5-11.107-10.729-16,3.359-6,15.831,6.593,20.6,16.125,6.026,11.989,2.52,19.064.252,19.715C1056.071,836.7,1051.935,831.384,1051.053,830.334Z" transform="translate(-1005.216 -790.36)" fill="#595cff"/>
        <path id="Path_9419" data-name="Path 9419" d="M1094.083,964.494l13.312,102.313h-81.4c1.68-9.07,16.8-102.439,16.8-102.439Z" transform="translate(-1004.49 -817.336)" fill="#595cff"/>
      </g>
      <g id="freepik--Character--inject-2" transform="translate(97.667 358.118)">
        <path id="Path_9420" data-name="Path 9420" d="M479.9,690.6a2.226,2.226,0,0,1-2.1,2.1l-9.091-.357c-5.858-21.941-12.808-39.619-11.212-32.838a108.822,108.822,0,0,1,2.268,32.439l-17.93-1.008c-3.086-37.793-9.175-66.347-9.511-57.781-1.386,34.5-4.577,45.288-8.188,56.794-43.273-2.561-99.962-6.509-140.883-10.267-2.54-21-4.325-43.651-5.207-42.181-6.8,11.023-10.1,27.673-11.59,40.606-13.017-1.281-23.389-2.54-29.688-3.632,0,0-1.218-17.574-1.05-23.305a119.447,119.447,0,0,1,9.133-42.727c5.858-13.92,14.7-25.846,23.1-38.108a1.538,1.538,0,0,1,.189-.273s0,0,0-.1a121.778,121.778,0,0,0,13.689-25.615.4.4,0,0,0,0-.189,120.177,120.177,0,0,0,5.543-20.2c4.577-25.2,21.164-45.54,45.687-49.739,44.637-29.163,92.634-15.033,102.88,18.9.987,3.317,1.869,7.076,2.688,11.17v.126c3.044,15.117,5.165,34.559,7.412,49.655h0v.168h0a138.342,138.342,0,0,0,3.548,17.532C458.442,599.523,482.819,617.264,479.9,690.6Z" transform="translate(-121.207 -415.48)" fill="#263238"/>
        <path id="Path_9421" data-name="Path 9421" d="M321.419,484.335c-16.5,6.488-27.295,17.385-31.725,35.693-2.562,10.624-4.388,21-9.6,30.822s-13.059,17.952-21,25.8c-12.6,12.6-21.626,25.321-25.2,43.294s-5.1,40.081-.714,57.928h.168c-3.212-17.973-.777-42.118,4.2-60.069,5.543-19.694,18.245-31.137,31.494-45.162a83.983,83.983,0,0,0,21.416-39.157c2.1-9.007,3-18.539,7.6-26.77,5.48-9.805,14.928-15.432,24.229-20.324a1.119,1.119,0,0,0-.882-2.058Z" transform="translate(-120.363 -419.675)" fill="#263238"/>
        <path id="Path_9422" data-name="Path 9422" d="M512.423,611.846c-9.511-15.516-19.694-28.974-24.271-47.472-4.2-16.8-5.711-34.391-9.973-51.23a.21.21,0,1,0-.42,0c6.194,29.772,4.892,59.02,21,85.2,8.713,14.235,17.532,27.484,22.529,43.965a141.658,141.658,0,0,1,4.955,53.2c0,.63.756.693.882,0A117.052,117.052,0,0,0,512.423,611.846Z" transform="translate(-160.554 -424.339)" fill="#263238"/>
        <path id="Path_9423" data-name="Path 9423" d="M645.833,579.037,587.486,688.908c-2.1,3.128-1.071,6.3,2.31,7.181l60.447,14.886a10.12,10.12,0,0,0,9.931-4.2L718.521,596.9c2.1-3.128,1.05-6.3-2.31-7.181l-60.447-14.865A10.078,10.078,0,0,0,645.833,579.037Z" transform="translate(-178.214 -434.382)" fill="#37474f"/>
        <path id="Path_9424" data-name="Path 9424" d="M654.409,581.064,596.061,690.936c-2.1,3.128-1.05,6.3,2.331,7.181L658.839,713a10.057,10.057,0,0,0,9.91-4.2L727.1,598.91c2.1-3.128,1.071-6.3-2.31-7.181L664.34,576.865A10.078,10.078,0,0,0,654.409,581.064Z" transform="translate(-179.609 -434.709)" fill="#455a64"/>
        <path id="Path_9425" data-name="Path 9425" d="M682.153,591.868a5.291,5.291,0,1,1-.524-4.019A5.291,5.291,0,0,1,682.153,591.868Z" transform="translate(-192.088 -436.086)" fill="#263238"/>
        <path id="Path_9426" data-name="Path 9426" d="M361.288,749.543c25.2,78.966,90.954,185.835,123.33,190.517,15.411,2.226,42.5,9.532,65.087-5.543,49.277-32.922,98.408-98.681,113.651-137,5.711-14.34-69.035-63.492-81.464-52.637-29.121,25.405-66.011,77.958-70.441,77.034-16.44-3.443-74.3-66.032-114.638-110.061C347.83,658.4,351.252,718.07,361.288,749.543Z" transform="translate(-140.623 -453.193)" fill="#ad6359"/>
        <path id="Path_9427" data-name="Path 9427" d="M736.6,718.081c0-31.83-4.829-40.018,9.49-66.872,9.406-17.616,2.1-31.179-14.991-19.505-28.093,19.106-36.785,60.153-35.693,75.27Z" transform="translate(-195.919 -442.936)" fill="#ad6359"/>
        <path id="Path_9428" data-name="Path 9428" d="M694.2,802.092s24-38.276,27.421-72.2c2.351-23.453,1.806-75.081-54.9-116.737-13.458-9.889-39.64-14.424-23.536,9.7,11.443,17.133,23.893,24.544,28.722,35.693,0,0-33.971-1.806-43.357,12.052a310.007,310.007,0,0,0-21.815,38,64.519,64.519,0,0,0,6.74,4.724s-8.4,13.269-2.876,36.512Z" transform="translate(-181.518 -439.332)" fill="#ad6359"/>
        <path id="Path_9429" data-name="Path 9429" d="M715.375,713.46c-7.16-10.078-22.676-31.2-41.362-44.091-20.786-14.277-64.646-36.176-75.018-20.723-7.6,11.317,8.4,21.143,8.4,21.143s-20.03-5.228-24.67,6.509c-4.2,10.687,8.608,17.553,8.608,17.553s-12.6-1.092-14.7,9.994c-2.519,13.332,24.523,13.416,33.594,29.121C612.306,736.43,715.375,713.46,715.375,713.46Z" transform="translate(-176.6 -445.539)" fill="#ad6359"/>
        <path id="Path_9430" data-name="Path 9430" d="M668.7,698.84c-8.293-8.4-31.977-22.571-54.736-24.271-.5,0-.819.336-.357.462a247.435,247.435,0,0,1,54.946,24.019C668.569,699.113,668.7,698.945,668.7,698.84Z" transform="translate(-182.599 -450.613)" fill="#263238"/>
        <path id="Path_9431" data-name="Path 9431" d="M650.364,724.021c-7.894-6.488-32.943-20.03-56.059-21-.525,0-.8.378-.336.483a264.549,264.549,0,0,1,56.269,20.7C650.364,724.294,650.469,724.1,650.364,724.021Z" transform="translate(-179.406 -455.239)" fill="#263238"/>
        <path id="Path_9432" data-name="Path 9432" d="M395.787,849.435l64.185-80.372s-51.083-56.353-83.732-79.785c-18.287-13.08-28.7.945-26.119,21.1C359.191,780.988,395.787,849.435,395.787,849.435Z" transform="translate(-139.743 -452.178)" fill="#595cff"/>
        <path id="Path_9433" data-name="Path 9433" d="M395.787,849.435l64.185-80.372s-51.083-56.353-83.732-79.785c-18.287-13.08-28.7.945-26.119,21.1C359.191,780.988,395.787,849.435,395.787,849.435Z" transform="translate(-139.743 -452.178)" fill="#595cff"/>
        <path id="Path_9434" data-name="Path 9434" d="M439.569,754.07a5.648,5.648,0,1,0,5.3,5.637A5.648,5.648,0,0,0,439.569,754.07Zm0,10.309a4.661,4.661,0,1,1,4.64-4.64,4.661,4.661,0,0,1-4.64,4.64Zm-51.881,7.076a5.627,5.627,0,1,0,5.627,5.627A5.627,5.627,0,0,0,387.688,771.455Zm0,10.267a4.611,4.611,0,1,0,0-.063Zm4.094-55.261a5.637,5.637,0,1,0,0-.063Zm0,10.309a4.672,4.672,0,1,0,0-.063ZM350.021,703.05a3.1,3.1,0,0,1-.1.966,4.661,4.661,0,0,1,.147,8.86v.966a5.627,5.627,0,0,0-.168-10.792Zm77.16,110.229a5.627,5.627,0,1,0-5.627,6.026,5.725,5.725,0,0,0,.861,0l1.071-1.323a4.559,4.559,0,0,1-1.932.42,4.682,4.682,0,1,1,4.682-4.682,4.827,4.827,0,0,1,0,.945Z" transform="translate(-139.77 -455.243)" fill="#fff"/>
        <path id="Path_9435" data-name="Path 9435" d="M452.622,778.265,395.807,849.5S359.19,781.036,350.12,710.532c-1.785-13.857,2.6-24.8,11.422-26.035Z" transform="translate(-139.743 -452.227)" opacity="0.1"/>
        <path id="Path_9436" data-name="Path 9436" d="M452.807,776.8c-10.9,11.548-39.535,43.734-55.429,67.187-.105.147.4.567.5.441,16.146-17.427,45.813-54.442,55.66-66.893C453.731,777.137,453.017,776.591,452.807,776.8Z" transform="translate(-147.486 -467.223)" fill="#263238"/>
        <path id="Path_9437" data-name="Path 9437" d="M125.933,961.154l276.789-.651-15.306-95.175s21.9-26.56,17.763-55.366c-4.556-31.494-61.476-111.614-66.263-116.128-19.274-18.078-39.682-21.332-59.271-14.8h0C189.089,735.93,125.933,961.154,125.933,961.154Z" transform="translate(-103.364 -450.834)" fill="#595cff"/>
        <path id="Path_9438" data-name="Path 9438" d="M399.633,924.665A4.666,4.666,0,1,1,396.063,917a4.493,4.493,0,0,1,2.457.714l-.189-1.2a5.417,5.417,0,0,0-2.268-.483,5.648,5.648,0,1,0,3.758,9.847Zm-55.87-29.1a5.648,5.648,0,1,0,5.627,5.648A5.648,5.648,0,0,0,343.762,895.565Zm0,10.309a4.692,4.692,0,1,1,0,.021ZM387.854,803.98a12.617,12.617,0,1,0,.042.021Zm0,10.309a2.378,2.378,0,1,1,.042.021Zm-202.9,132.274a5.648,5.648,0,1,0,5.3,5.637,5.648,5.648,0,0,0-5.3-5.637Zm0,10.309a16.037,16.037,0,1,0,.042-.063Zm57.361-28.827a4.069,4.069,0,1,0,.042-.063Zm0,10.288a16.577,16.577,0,1,0,.042-.063ZM199,785.483a4.9,4.9,0,0,0-.8,0l-.588,1.113a5.019,5.019,0,0,1,1.386-.21,4.661,4.661,0,1,1-4.409,6.068L194,793.608a5.627,5.627,0,1,0,5-8.188Zm15.852,43.126a5.627,5.627,0,1,0,5.606,5.606,5.627,5.627,0,0,0-5.606-5.606Zm0,10.267a4.661,4.661,0,1,1,4.64-4.661,4.661,4.661,0,0,1-4.64,4.661ZM261.185,711.43a5.648,5.648,0,1,0,5.177,2.715A5.648,5.648,0,0,0,261.185,711.43Zm0,10.309a4.682,4.682,0,1,1,3.324-1.364,4.682,4.682,0,0,1-3.324,1.364Zm5.585,87.406a5.627,5.627,0,1,0,3.992,1.641,5.648,5.648,0,0,0-3.992-1.641Zm0,10.309a4.661,4.661,0,1,1,3.317-1.365A4.661,4.661,0,0,1,266.77,819.454Zm48.06-120.643a5.57,5.57,0,1,0,.062,0Zm0,10.288a4.618,4.618,0,1,1,.063,0Zm43.231,13.332a5.6,5.6,0,1,0,.063,0Zm0,10.309a4.614,4.614,0,1,1,.063,0Zm-18.9,208.133a5.719,5.719,0,1,1-.042,0Zm0,10.309a4.629,4.629,0,1,0-.042,0Zm-51.482-47.031a5.635,5.635,0,1,1-.042,0Zm0,10.267a4.64,4.64,0,1,1-.042.042ZM348.465,836.4a5.635,5.635,0,1,1-.042,0Zm0,10.288a4.645,4.645,0,1,0-.042,0Zm5.564-79.2a5.627,5.627,0,1,0,5.627,5.627A5.627,5.627,0,0,0,354.029,767.489Zm0,10.267a4.611,4.611,0,1,0,0-.063Zm39.01,81.4a5.627,5.627,0,0,0-2.226,10.771l-.189-1.2a4.64,4.64,0,0,1,2.415-8.608,3.988,3.988,0,0,1,1.134.147l.546-.861a5.52,5.52,0,0,0-1.68-.315ZM319.554,798.92a4.478,4.478,0,1,0,.021-.063Zm0,10.288a7.281,7.281,0,1,0,.021-.063ZM174.976,859.095A5.627,5.627,0,1,0,179,860.705a5.627,5.627,0,0,0-4.026-1.611Zm0,10.267a4.661,4.661,0,1,1,4.64-4.661,4.661,4.661,0,0,1-4.64,4.661Zm112.664,86.5a5.627,5.627,0,0,0-5.627,5.375H283a4.636,4.636,0,0,1,9.259-.021h.987a5.627,5.627,0,0,0-5.606-5.354ZM244.158,867.85a5.627,5.627,0,1,0,5.627,5.606A5.627,5.627,0,0,0,244.158,867.85Zm0,10.267a4.64,4.64,0,1,1,3.3-1.359A4.661,4.661,0,0,1,244.158,878.117Zm2.792-113.546a5.627,5.627,0,1,0,4.006,1.633,5.627,5.627,0,0,0-4.006-1.633Zm0,10.267a4.661,4.661,0,1,1,4.3-2.23A4.661,4.661,0,0,1,246.95,774.838ZM147.094,907.784a5.79,5.79,0,0,0-1.071.1l-.378,1.092a4.743,4.743,0,0,1,1.449-.231,4.682,4.682,0,1,1,0,9.343,4.6,4.6,0,0,1-3.884-2.1l-.378,1.092a5.585,5.585,0,0,0,4.2,1.995,5.648,5.648,0,1,0,0-11.275Zm61.245-9.322a5.745,5.745,0,1,1-.021,0Zm0,10.288a4.772,4.772,0,1,0-.021,0Zm89.611-54.317a5.633,5.633,0,1,1-.021,0Zm0,10.267a4.651,4.651,0,1,0-.021,0Zm-14.7-185.52a4.514,4.514,0,0,1-3.38,1.848h0l-1.3.9a4.864,4.864,0,0,0,.966,0,5.669,5.669,0,0,0,5.123-3.275Zm17.385,62.568a5.623,5.623,0,1,0,.084,0Zm0,10.309a4.668,4.668,0,1,1,.084,0Z" transform="translate(-106.111 -451.277)" fill="#fff"/>
        <path id="Path_9439" data-name="Path 9439" d="M416.041,743.181c5.354,8.9,11.275,17.511,16.8,26.287-2.247-6.3-4.472-12.451-6.95-18.581,0-.126.126-.231.189-.1a130.025,130.025,0,0,1,9.574,23.1,178.453,178.453,0,0,1,11.191,20.681,82.388,82.388,0,0,1,7.5,27.085,69.662,69.662,0,0,1-3.926,27.882,179.765,179.765,0,0,1-14.025,29.5c-.714,1.26-2.457.105-1.869-1.155,7.853-16.8,16.524-34.349,15.747-53.33s-9.532-36.071-18.1-52.343a259.766,259.766,0,0,0-16.8-28.722C415.1,743.16,415.747,742.782,416.041,743.181Z" transform="translate(-150.402 -461.738)" fill="#263238"/>
        <path id="Path_9440" data-name="Path 9440" d="M372.93,893.416a229.973,229.973,0,0,0-33.593,5.522c-5.48,1.407-10.855,3.044-16.209,4.808-2.687.882-5.375,1.68-8.083,2.457a36.828,36.828,0,0,1-8.65,1.638.21.21,0,0,0,0,.4,61.684,61.684,0,0,0,8.4-.147,60.112,60.112,0,0,0,7.936-1.512c5.564-1.365,11.065-3,16.629-4.43,11.191-2.876,22.382-5.753,33.761-7.81C373.581,894.256,373.455,893.353,372.93,893.416Z" transform="translate(-132.675 -486.186)" fill="#263238"/>
        <path id="Path_9441" data-name="Path 9441" d="M408.346,905.113a250.792,250.792,0,0,0-28.071-1.344c-4.7,0-9.343.378-14.025.84q-3.338.315-6.677.756c-2.436.315-4.85.945-7.307,1.218-.252,0-.252.441,0,.42,2.31-.21,4.661,0,6.992,0l7.013-.189c4.682,0,9.343-.168,14.025-.336,9.364-.315,18.686-.525,28.051-.525A.422.422,0,0,0,408.346,905.113Z" transform="translate(-140.124 -487.869)" fill="#263238"/>
        <path id="Path_9442" data-name="Path 9442" d="M242.027,704.907c-70.567,73.8-158.162,228.226-140.82,258.943,19.316,34.223,120.181-70.357,116.989-75.4-2.708-4.2,33.216-97.862,58.789-165.868S259.454,686.556,242.027,704.907Z" transform="translate(-98.984 -451.682)" fill="#ad6359"/>
        <path id="Path_9443" data-name="Path 9443" d="M166.649,793.43,267.87,811.654s25.2-71.743,30.3-111.551c2.792-22.319-10.309-23.243-26.812-11.38C213.6,730.232,166.649,793.43,166.649,793.43Z" transform="translate(-109.983 -451.686)" fill="#595cff"/>
        <path id="Path_9444" data-name="Path 9444" d="M208.8,785.927a5.627,5.627,0,1,0,5.627,5.606A5.627,5.627,0,0,0,208.8,785.927Zm0,10.267a4.661,4.661,0,1,1,4.64-4.661,4.661,4.661,0,0,1-4.64,4.661Zm62.19-84.32a5.648,5.648,0,1,0,5.177,2.715A5.648,5.648,0,0,0,270.995,711.875Zm0,10.309a4.682,4.682,0,1,1,3.324-1.364,4.682,4.682,0,0,1-3.324,1.364Zm-44.238,11.8a5.711,5.711,0,0,0-2.457.567h0l-2.6,2.625h0a5.438,5.438,0,0,0-.546,2.414,5.648,5.648,0,1,0,5.627-5.627Zm0,10.309a4.661,4.661,0,1,1,3.317-1.365,4.682,4.682,0,0,1-3.317,1.365Zm45.729,67.187,1.176.21a.817.817,0,0,1,.21-.168l.5-1.428a5.207,5.207,0,0,0-1.89,1.365ZM256.76,765.036a2.339,2.339,0,1,0,0-.021Zm0,10.267a4.661,4.661,0,1,1,4.3-2.23A4.661,4.661,0,0,1,256.76,775.3Zm32-92.865h.651a5.585,5.585,0,0,0,3.254-1.05,19.842,19.842,0,0,0-3.905,1.029Z" transform="translate(-115.921 -451.721)" fill="#fff"/>
        <path id="Path_9445" data-name="Path 9445" d="M270.127,813.914c-15.348-4.094-57.277-13.983-85.369-16.8-.168,0-.315.609-.147.651,23.1,5.921,69.664,14.4,85.306,17.154C270.211,814.9,270.4,814.04,270.127,813.914Z" transform="translate(-112.89 -470.534)" fill="#263238"/>
        <path id="Path_9446" data-name="Path 9446" d="M272.8,822.089c4.2.4,8.4.9,12.472,1.449l-.882.525q4.535-16.524,9.973-32.8c3.611-10.813,7.412-21.584,11.779-32.208-2.645,11.149-5.837,22.13-9.217,33.027s-7.076,21.752-11.128,32.565l-.252.651-.609-.126C280.905,824.147,276.853,823.16,272.8,822.089Z" transform="translate(-127.238 -464.347)" fill="#263238"/>
        <path id="Path_9447" data-name="Path 9447" d="M304.617,782.807a31.076,31.076,0,0,1,3.443-6.3,46.434,46.434,0,0,1,4.577-5.69,12.6,12.6,0,0,1-1.2,3.485,22.359,22.359,0,0,1-1.827,3.149A24,24,0,0,1,304.617,782.807Z" transform="translate(-132.41 -466.258)" fill="#263238"/>
        <path id="Path_9448" data-name="Path 9448" d="M104.021,1005.259c19.127,20.7,63.282,19.106,174.791,25.531,15.432.882,51-106.323,34.559-108.108-20.681-2.268-101.494-6.572-107.436-6.131C155.776,920.184,91.067,991.234,104.021,1005.259Z" transform="translate(-99.53 -489.943)" fill="#ad6359"/>
        <path id="Path_9449" data-name="Path 9449" d="M315.335,921.5s46.968.672,71.533,8.65c32.9,10.687,56.9,33.468,66.368,43.63,19.8,21.185,52.994,86.083,35.966,98.912-15.432,11.611-46-56.458-46-56.458s42.622,64.248,21.5,74.829-52.07-70.483-52.07-70.483,42.328,67,18.9,74.452c-17.763,5.627-49.991-66.179-49.991-66.179s35.987,57.844,17.952,64.416c-19.9,7.264-53.813-57.151-53.813-57.151-48.627,8.986-75.459-6.614-93.222-19.988C248,1012.892,315.335,921.5,315.335,921.5Z" transform="translate(-123.896 -490.752)" fill="#ad6359"/>
        <path id="Path_9450" data-name="Path 9450" d="M464.281,1006.948c5.291,7.349,10.687,14.7,15.285,22.592s8.965,15.789,12.808,24c9.469,20.114,12.262,34.2,11.989,33.342-6.3-20.114-22.361-48.291-26.98-56.143s-8.8-15.831-13.4-23.641C463.841,1006.906,464.155,1006.759,464.281,1006.948Z" transform="translate(-158.309 -504.628)" fill="#263238"/>
        <path id="Path_9451" data-name="Path 9451" d="M430.272,1026.207c6.3,9.7,12.975,19.085,18.9,29.058s10.5,19.883,15.768,30.192c.4.8-.168.756-.588,0-5.606-10.1-11.548-18.9-17.259-29.016s-11.023-20.282-17.07-30.066A.152.152,0,0,1,430.272,1026.207Z" transform="translate(-152.791 -507.762)" fill="#263238"/>
        <path id="Path_9452" data-name="Path 9452" d="M398.03,1037.456c10.5,14.34,18.224,30.57,25.489,46.674.357.8-.357.672-.777-.126-8.167-15.684-14.487-28.03-25.2-46.191C397.358,1037.54,397.8,1037.162,398.03,1037.456Z" transform="translate(-147.508 -509.584)" fill="#263238"/>
        <path id="Path_9453" data-name="Path 9453" d="M176.72,934.143c6.719-5.459,25.972-18.728,46.548-18.141.231,0,.273.315,0,.336-16.671,1.932-39.451,13.311-46.38,18.077a.168.168,0,0,1-.168-.273Z" transform="translate(-111.613 -489.855)" fill="#263238"/>
        <path id="Path_9454" data-name="Path 9454" d="M326.052,662.553c.378,4.871,18.1,38.8,39.724,41.11,7.034.735,12.766-37.52,12.766-37.52l1.071-2.729,14.949-38.192L352.7,588.206l-6.11-5s-3.4,10.729-7.5,24.124c-.189.609-.4,1.239-.588,1.89s-.5,1.47-.693,2.1c-.651,2.1-1.281,4.031-1.89,6.068-.462,1.554-.924,3.065-1.344,4.7s-.882,3.254-1.365,4.892C328.949,643.4,325.947,660.5,326.052,662.553Z" transform="translate(-135.894 -435.762)" fill="#ad6359"/>
        <path id="Path_9455" data-name="Path 9455" d="M341.622,607.375a82.283,82.283,0,0,0,40.522,56.038l14.949-38.192-41.866-37.016-6.11-5S345.716,593.98,341.622,607.375Z" transform="translate(-138.425 -435.762)" fill="#263238"/>
        <path id="Path_9456" data-name="Path 9456" d="M462.651,560.135c-9.469,71.386-53.288,73.738-68.678,71.659-13.962-1.869-61.266-10.015-59.209-81.884s38.234-90.094,70.4-87.49S472.225,488.749,462.651,560.135Z" transform="translate(-137.3 -416.089)" fill="#ad6359"/>
        <path id="Path_9457" data-name="Path 9457" d="M473.5,568.161a46.2,46.2,0,0,1-4.577-1.974,8.125,8.125,0,0,1-4.2-2.918,2.582,2.582,0,0,1,.63-3.065,6.3,6.3,0,0,1,6.446-.189,9.238,9.238,0,0,1,5.06,4.409,2.73,2.73,0,0,1-3.359,3.737Z" transform="translate(-158.394 -431.863)" fill="#263238"/>
        <path id="Path_9458" data-name="Path 9458" d="M417.191,553.961a43.7,43.7,0,0,0,4.976,0,7.957,7.957,0,0,0,5.06-.987,2.562,2.562,0,0,0,.63-3.065,6.3,6.3,0,0,0-5.837-2.708,9.3,9.3,0,0,0-6.3,2.1,2.73,2.73,0,0,0,1.47,4.661Z" transform="translate(-150.334 -429.904)" fill="#263238"/>
        <path id="Path_9459" data-name="Path 9459" d="M425.249,574.123c0-.189-.4.168-.441.357-.714,4.85-2.352,10.288-7.013,11.107a.147.147,0,0,0,0,.273C423.255,585.965,425.354,578.721,425.249,574.123Z" transform="translate(-150.792 -434.277)" fill="#263238"/>
        <path id="Path_9460" data-name="Path 9460" d="M421.152,567.025c-7.664-2.1-11.065,13.458-3.989,15.306S427.556,568.747,421.152,567.025Z" transform="translate(-150.075 -433.1)" fill="#263238"/>
        <path id="Path_9461" data-name="Path 9461" d="M417.031,566.763c-1.554.567-3.212,1.827-4.871,1.617s-2.981-2.1-3.884-3.989c0-.189-.252,0-.294.126-.693,2.96-.231,6.3,2.834,7.391s5.48-1.134,6.866-3.947C417.933,567.456,417.639,566.532,417.031,566.763Z" transform="translate(-149.166 -432.69)" fill="#263238"/>
        <path id="Path_9462" data-name="Path 9462" d="M460.536,579.341c0-.168.315.315.273.5-1.26,4.745-1.89,10.5,2.1,12.954.126,0,0,.336-.1.273C457.681,591.12,458.583,583.646,460.536,579.341Z" transform="translate(-157.504 -435.128)" fill="#263238"/>
        <path id="Path_9463" data-name="Path 9463" d="M466.01,574.551c7.831,1.176,4.892,16.8-2.352,15.642S459.459,573.564,466.01,574.551Z" transform="translate(-157.581 -434.347)" fill="#263238"/>
        <path id="Path_9464" data-name="Path 9464" d="M470.761,576.606c1.071,1.05,1.995,2.772,3.443,3.149s3.254-1.008,4.64-2.415c.147-.147.252,0,.21.21-.462,2.981-2.1,5.9-5,5.942s-4.2-2.9-4.2-5.984C469.732,576.837,470.32,576.081,470.761,576.606Z" transform="translate(-159.267 -434.66)" fill="#263238"/>
        <path id="Path_9465" data-name="Path 9465" d="M417.507,623.244c.84,1.407,1.554,3.233,3.233,3.842a13.06,13.06,0,0,0,5.417.189.168.168,0,0,1,.126.294,6.551,6.551,0,0,1-6.7.945A5.186,5.186,0,0,1,417,623.328C417,623.034,417.381,623.034,417.507,623.244Z" transform="translate(-150.671 -442.246)" fill="#263238"/>
        <path id="Path_9466" data-name="Path 9466" d="M442.433,598.392s-.5,7.37-1.218,10.75c0,.315-.9.294-2.1,0h-.126a16.44,16.44,0,0,1-14.361-9.259.357.357,0,0,1,.609-.357,24.8,24.8,0,0,0,13.794,7.265c.441-.882.441-12.6.987-12.6a29.876,29.876,0,0,1,7.307,3.338c1.512-15.327.546-30.759,2.268-46a.462.462,0,0,1,.924,0c2.1,16.125.819,33.8-.315,49.655C450.1,603.242,443.671,599.232,442.433,598.392Z" transform="translate(-151.914 -430.538)" fill="#263238"/>
        <path id="Path_9467" data-name="Path 9467" d="M347.54,465.954c-2.436,5.648-34.874,9.532-49.151-12.367-14.067-21.584,4.556-48.144,30.36-35.483C345.062,426.125,352.684,453.986,347.54,465.954Z" transform="translate(-130.612 -408.391)" fill="#263238"/>
        <path id="Path_9468" data-name="Path 9468" d="M298.8,422.672a36.071,36.071,0,0,1,21-11.191,21.731,21.731,0,0,1,20.408,7.433c5.165,5.816,7.831,13.647,9.259,21.542a66.646,66.646,0,0,1,.882,12.136,33.259,33.259,0,0,1-1.953,12.115,29.394,29.394,0,0,0,4.2-11.926,54.211,54.211,0,0,0,.42-12.87,42.412,42.412,0,0,0-9.322-24.082,24.208,24.208,0,0,0-24.544-7.936A31.809,31.809,0,0,0,298.8,422.672Z" transform="translate(-131.464 -407.142)" fill="#263238"/>
        <path id="Path_9469" data-name="Path 9469" d="M337.489,552.258c12.6,5.186,24.019-23.83,24.019-23.83s58.159,5.585,75.1-38.423c0,0,1.743,31.494,27.295,52.364,0,0,11.464-50.18-25.2-70.441,0,0-44.091-30.948-81.884.4S329.027,548.794,337.489,552.258Z" transform="translate(-136.475 -415.456)" fill="#263238"/>
        <path id="Path_9470" data-name="Path 9470" d="M446.139,492.225a51.209,51.209,0,0,1-8.062,20.009,53.309,53.309,0,0,1-15.432,15.453,46.579,46.579,0,0,1-4.766,2.729l-2.414,1.323c-.84.357-1.7.672-2.561,1.008-1.722.63-3.4,1.344-5.144,1.89s-3.548.861-5.312,1.26c-.9.189-1.785.42-2.667.567l-2.708.294-5.4.567c-3.611,0-7.223-.126-10.792-.336,3.569-.546,7.139-.693,10.624-1.26l5.228-1.008,2.582-.483c.861-.231,1.68-.525,2.52-.777,1.68-.546,3.359-1.05,5.039-1.533a34.722,34.722,0,0,0,4.808-2.1L414.1,528.8l2.268-1.26a45.951,45.951,0,0,0,4.493-2.666A60.886,60.886,0,0,0,436.04,510.7a64.262,64.262,0,0,0,5.732-8.839,61.333,61.333,0,0,0,4.367-9.637Z" transform="translate(-144.807 -420.973)" fill="#263238"/>
        <path id="Path_9471" data-name="Path 9471" d="M333.469,513.737l-5.837,5,14.34,24.229,12.808-11.4Zm9.847,22.046-10.5-15.516,1.344-1.2,13.71,12.786Z" transform="translate(-136.151 -424.469)" fill="#595cff"/>
        <path id="Path_9472" data-name="Path 9472" d="M340.665,500.8l-3.506,6.824,22.4,17.028,7.58-15.39Zm17.448,16.8L342.6,507.1l.777-1.617,17.511,6.677Z" transform="translate(-137.7 -422.366)" fill="#595cff"/>
        <path id="Path_9473" data-name="Path 9473" d="M341.983,570.743s-10.5-25.342-21.626-22.088-6.7,37.625,4.01,44.574a12.178,12.178,0,0,0,17.343-2.855Z" transform="translate(-133.915 -430.098)" fill="#ad6359"/>
        <path id="Path_9474" data-name="Path 9474" d="M323.381,560.444c-.189,0-.273.189-.126.294,7.454,5.144,10.078,13.689,11.338,22.235-1.764-3.569-4.7-5.963-9.406-3.968-.252.1-.126.483.126.483a7.537,7.537,0,0,1,7.475,4.346,35.984,35.984,0,0,1,2.394,7.37c.231.819,1.638.714,1.554-.189v-.21C339.254,580.411,334.383,563.993,323.381,560.444Z" transform="translate(-135.427 -432.062)" fill="#263238"/>
      </g>
      <g id="freepik--Padlock--inject-2" transform="translate(492.956 149.579)">
        <path id="Path_9475" data-name="Path 9475" d="M705.3,216.137v58.789H688.69V216.137c0-22.34-16.965-40.5-37.793-40.5S613.1,193.8,613.1,216.137v58.789H596.5V216.137c0-32,24.418-58.012,54.442-58.012S705.3,184.139,705.3,216.137Z" transform="translate(-575.144 -158.125)" fill="#c7c7c7"/>
        <path id="Path_9476" data-name="Path 9476" d="M596.4,245.624,613,246.3v42.811H596.4Z" transform="translate(-575.128 -172.348)" fill="#a6a6a6"/>
        <path id="Path_9477" data-name="Path 9477" d="M723.193,250.783v39.052H706.585V250.112Z" transform="translate(-593.039 -173.077)" fill="#a6a6a6"/>
        <rect id="Rectangle_5243" data-name="Rectangle 5243" width="151.423" height="137.376" transform="translate(0 83.312)" fill="#595cff"/>
        <rect id="Rectangle_5244" data-name="Rectangle 5244" width="75.711" height="137.376" transform="translate(75.711 83.312)" opacity="0.1"/>
        <path id="Path_9478" data-name="Path 9478" d="M665.053,340.8l6.3,30.066H644.5l6.3-30.066a13.458,13.458,0,1,1,14.214,0Z" transform="translate(-582.938 -183.774)" fill="#263238"/>
      </g>
    </g>
  </g>
</svg>
